<?xml version="1.0" encoding="UTF-8"?>
<svg id="Layer_1" data-name="Layer 1" xmlns="http://www.w3.org/2000/svg" viewBox="0 0 184.07 130.97">
  <defs>
    <style>
      .cls-1 {
        fill: #fff;
      }
    </style>
  </defs>
  <path class="cls-1" d="m143.12,77.57l-9.84-24.85c-.4-1.03-1.2-1.84-2.21-2.28s-2.15-.46-3.17-.05l-6.1,2.44c-1.67.67-2.71,2.35-2.58,4.14l-4.53,1.86h0c-.47.2-.98.27-1.49.21l-20.06-2.36c-1.55-.18-3.11.27-4.32,1.25l-3.16,2.58c-4.93-2.09-12.32-2.01-15.37-1.88h0c-.52.02-1.04-.09-1.51-.33l-2.33-1.2c.19-1.86-.89-3.61-2.64-4.28l-6.16-2.44c-1.03-.41-2.17-.39-3.18.05s-1.81,1.26-2.21,2.28l-9.84,24.85h0c-.84,2.13.21,4.53,2.33,5.37l6.17,2.44c.48.19,1,.29,1.52.29.58,0,1.16-.11,1.7-.33.34-.16.66-.36.94-.6l4.4,3.62c.25.2.55.31.87.3.58,0,1.1-.37,1.3-.93.19-.55.02-1.16-.44-1.53l-4.61-3.78,8.97-22.67,1.93.99h0c.89.46,1.88.68,2.88.64,4.28-.24,8.57.15,12.74,1.16l-9.54,7.87c-1.35,1.1-1.6,3.07-.57,4.47,2.53,3.44,5.62,4.66,8.46,3.38,3.03-1.46,5.93-3.2,8.64-5.2,4.51,4.06,10.4,6.26,16.47,6.14.92,0,1.84-.06,2.76-.16l11.47,9.31c.62.46,1.03,1.15,1.12,1.93.09.77-.13,1.54-.62,2.14-.49.6-1.2.98-1.97,1.04-.77.07-1.53-.18-2.12-.69l-13.27-10.71h0c-.6-.48-1.45-.38-1.94.21-.23.28-.34.65-.3,1.01.04.37.22.7.51.93l11.16,9h0c1.15,1,1.29,2.74.34,3.92-.96,1.19-2.69,1.4-3.91.49l-12.42-9.98c-.28-.23-.65-.34-1.01-.3-.36.04-.7.22-.93.51-.48.6-.39,1.47.21,1.95l9.67,7.84h0c1.12.98,1.29,2.67.39,3.86-.91,1.19-2.58,1.48-3.83.65l-10.71-8.7c-.6-.39-1.39-.27-1.84.28-.45.55-.4,1.36.11,1.86l8.67,7c.59.47.97,1.16,1.05,1.92.11,1.14-.47,2.24-1.48,2.79-1.01.54-2.25.43-3.14-.28l-1.08-.85-.11-.07h0c-.48-2.91-3.08-5-6.02-4.84.05-1.65-.61-3.24-1.82-4.36-1.21-1.12-2.84-1.67-4.48-1.5-.03-1.67-.79-3.24-2.09-4.29-1.11-.95-2.54-1.44-4-1.38-.29.03-.57.08-.85.14-.39-3-3.02-5.19-6.04-5.04-1.45.07-2.8.75-3.73,1.86l-4.14,4.93c-.91,1.15-1.32,2.62-1.14,4.08.18,1.46.93,2.79,2.09,3.69,1.34,1.15,3.14,1.6,4.86,1.2.36,2.88,2.8,5.04,5.7,5.05.19.02.38.02.56,0-.02.21-.02.41,0,.62.18,1.44.9,2.77,2.01,3.7,1.03.87,2.32,1.36,3.68,1.38h.37c-.07,1.7.68,3.33,2.01,4.39,1.02.89,2.32,1.37,3.67,1.38,1.57.02,3.06-.67,4.06-1.88l4.14-4.93c.27-.32.49-.67.66-1.05.98.76,2.17,1.16,3.41,1.17h.62c1.48-.16,2.84-.9,3.77-2.06.72-.89,1.14-1.99,1.22-3.13.56.19,1.14.28,1.74.29h.61c2.63-.26,4.71-2.35,4.95-4.97.75.36,1.56.56,2.39.56h.61c2.68-.28,4.78-2.44,4.99-5.14.58.2,1.2.31,1.82.31,2.38.01,4.5-1.49,5.29-3.73.8-2.24.08-4.74-1.77-6.23l-11.97-9.67c-.15-.12-.32-.21-.5-.26-.18-.04-.36-.04-.54,0-11.76,1.38-17.95-5.69-18.22-5.98-.48-.56-1.31-.65-1.89-.21-2.84,2.09-5.88,3.91-9.05,5.44-2.03.91-3.89-.85-5.11-2.51h0c-.15-.22-.11-.52.1-.69l15.18-12.42c.63-.53,1.44-.78,2.25-.69l20,2.39c.97.11,1.96-.03,2.87-.4l4.31-1.77,8.76,22.09-3.91,2.18h0c-.66.37-.9,1.21-.52,1.87.24.43.7.7,1.2.7.24,0,.47-.06.68-.18l3.79-2.04c.4.47.9.84,1.47,1.09.52.22,1.08.33,1.64.33.52,0,1.04-.1,1.52-.29l6.17-2.44c2.11-.84,3.15-3.22,2.33-5.34h0Zm-90.06,5.28c-.34.14-.72.14-1.07,0l-6.13-2.47c-.7-.28-1.06-1.07-.79-1.78l9.84-24.85h0c.21-.53.71-.87,1.28-.87.17,0,.35.03.51.09l6.17,2.44c.34.13.62.4.76.74s.15.71.02,1.06l-9.84,24.85h0c-.13.36-.41.64-.76.79h0Zm9.88,14.43c-1.2-.93-1.42-2.65-.51-3.85l4.14-4.93c.44-.53,1.08-.84,1.77-.87h.17c.69,0,1.37.25,1.91.7.58.48.96,1.16,1.05,1.92.1.68-.1,1.38-.54,1.91l-4.14,4.93c-1.03,1.08-2.72,1.15-3.84.16v.04Zm6.9,4.93c-1.21-.93-1.43-2.66-.51-3.87l4.14-4.93c.43-.52,1.06-.84,1.74-.9h.17c.69,0,1.37.25,1.91.7,1.17.92,1.4,2.61.51,3.81l-4.32,5.15c-1.05.92-2.6.92-3.64,0v.03Zm8.28,6.3c-.75.04-1.49-.21-2.07-.69-.58-.48-.96-1.16-1.06-1.92-.09-.69.11-1.38.55-1.91l4.28-5.08h0c.47-.47,1.11-.72,1.77-.72.69,0,1.37.25,1.91.7,1.17.92,1.4,2.61.51,3.81l-4.14,4.93c-.42.49-1.04.79-1.68.83l-.06.04Zm11.97.08l-4.14,4.93c-1.02,1.09-2.73,1.18-3.85.18-.58-.48-.96-1.16-1.05-1.92-.09-.68.1-1.37.54-1.91l4.14-4.91h0c.48-.58,1.19-.9,1.93-.89,1.5.02,2.76,1.12,2.97,2.61.1.66-.07,1.33-.48,1.86l-.06.04Zm49.65-28.2l-6.13,2.47c-.34.14-.72.14-1.07,0-.33-.14-.6-.42-.73-.76l-9.79-24.77v-.11c-.13-.34-.13-.72.02-1.06s.42-.61.76-.74l6.17-2.44c.16-.06.34-.09.51-.09.57,0,1.08.34,1.28.87l9.84,24.85h0c.12.35.1.74-.06,1.07-.16.34-.46.59-.81.71h0Z"/>
  <path class="cls-1" d="m92.8,52.19c7.45,0,14.16-4.48,17.02-11.37,2.85-6.88,1.27-14.8-4-20.07-5.26-5.27-13.19-6.84-20.07-4-6.89,2.85-11.37,9.57-11.37,17.02,0,10.17,8.25,18.41,18.41,18.41h0Zm-14.05-11.55h6.58c.95,3.01,2.35,5.86,4.14,8.45-4.67-1.04-8.62-4.15-10.73-8.45Zm-1.6-6.9c0-1.4.2-2.79.56-4.14.07,0,.13,0,.2,0h6.61c-.43,2.72-.39,5.49.12,8.2h-6.74c-.07,0-.13,0-.2,0-.36-1.31-.55-2.66-.56-4.02v-.04Zm15.65-15.61c2.24,2.55,3.91,5.55,4.9,8.8h-9.8c.99-3.25,2.67-6.24,4.9-8.8Zm5.52,11.55c.46,2.72.38,5.5-.21,8.2h-10.67c-.58-2.7-.64-5.48-.17-8.2h11.05Zm10.09,4.14c0,1.4-.19,2.8-.56,4.14h-6.91c.53-2.73.58-5.53.14-8.28h6.82c.37,1.34.55,2.71.55,4.1l-.04.04Zm-11.04,6.9c-1.09,2.98-2.63,5.78-4.57,8.28-1.94-2.51-3.48-5.3-4.57-8.28h9.14Zm-1.28,8.45c1.8-2.59,3.19-5.44,4.14-8.45h6.58c-2.12,4.27-6.07,7.35-10.73,8.37v.08Zm10.77-22.17h-6.38c-.82-2.95-2.12-5.75-3.85-8.28,4.44,1.1,8.18,4.1,10.23,8.2v.08Zm-17.95-8.28h0c-1.73,2.54-3.03,5.33-3.85,8.29h-6.31c2.01-4.17,5.75-7.23,10.23-8.38l-.07.09Z"/>
  <path class="cls-1" d="m69.15,27.97c.23.17.51.25.8.25.44,0,.85-.21,1.12-.56.21-.3.3-.67.24-1.04-.06-.36-.26-.68-.56-.9l-6.9-4.93c-.3-.23-.67-.33-1.05-.28-.37.05-.71.25-.93.56-.22.31-.31.68-.24,1.06.07.37.28.69.6.9l6.92,4.94Z"/>
  <path class="cls-1" d="m69.15,39.57l-6.9,4.94c-.62.44-.76,1.3-.32,1.92.22.3.54.5.9.56.36.06.74-.03,1.04-.24l6.9-4.93c.62-.45.77-1.3.33-1.93-.45-.62-1.3-.77-1.93-.33h-.02Z"/>
  <path class="cls-1" d="m60.85,35.15h6.43c.76,0,1.38-.62,1.38-1.38s-.62-1.38-1.38-1.38h-6.43c-.76,0-1.38.62-1.38,1.38s.62,1.38,1.38,1.38Z"/>
  <path class="cls-1" d="m115.64,28.22c.29,0,.57-.08.8-.25l6.9-4.94c.37-.18.63-.5.74-.89.1-.39.03-.81-.2-1.14-.23-.33-.6-.54-1-.58s-.8.1-1.09.38l-6.9,4.93c-.3.22-.5.54-.56.9-.06.36.03.74.24,1.04.25.34.65.55,1.08.56Z"/>
  <path class="cls-1" d="m114.53,39.89c-.21.3-.3.67-.24,1.04.06.36.26.68.56.9l6.9,4.93c.3.23.67.33,1.05.28.37-.05.71-.25.93-.56.22-.31.31-.68.24-1.06-.07-.37-.28-.69-.6-.9l-6.9-4.94c-.3-.22-.67-.31-1.04-.24-.36.06-.68.26-.9.56h0Z"/>
  <path class="cls-1" d="m116.93,33.77c0,.37.14.72.4.98.26.26.61.4.98.4h6.43c.76,0,1.38-.62,1.38-1.38s-.62-1.38-1.38-1.38h-6.43c-.76,0-1.38.62-1.38,1.38h0Z"/>
</svg>