<?xml version="1.0" encoding="UTF-8"?>
<svg id="Layer_1" data-name="Layer 1" xmlns="http://www.w3.org/2000/svg" viewBox="0 0 184.07 130.97">
  <defs>
    <style>
      .cls-1 {
        fill: #fff;
      }
    </style>
  </defs>
  <path class="cls-1" d="m161.66,46.76l-70.59-15.15c-1.19-.26-2.38-.08-3.42.53l-62.61,36.02c-1.74,1.01-2.66,2.95-2.35,4.94.31,1.99,1.78,3.56,3.76,3.99l8.47,1.82,1.56,9.98c-2.16,1.26-3.44,3.77-3.03,6.4.22,1.41.89,2.63,1.85,3.55l-.8,11.5c-.08,1.08.31,2.1,1.11,2.85.01.02.03.03.05.04.81.73,1.85,1.04,2.91.87l8.09-1.27c1.06-.17,1.96-.78,2.51-1.72.01-.02.02-.04.03-.05.53-.97.6-2.05.18-3.06l-4.28-10.7c.63-1.17.89-2.54.67-3.94-.41-2.63-2.4-4.62-4.84-5.16l-1.29-8.27,18.15,3.89,2.77,17.71c.59,3.67,5.09,5.81,13.75,6.56,7.35.64,16.86.13,26.76-1.42,9.9-1.55,19.1-3.98,25.91-6.83,8.01-3.36,11.64-6.77,11.08-10.45,0,0,0-.01,0-.02l-2.77-17.69,27.78-15.99c1.75-1.01,2.68-2.96,2.36-4.95-.31-1.99-1.78-3.56-3.76-3.99Zm-120.34,47.3c.15.95-.5,1.83-1.44,1.98-.94.15-1.83-.5-1.97-1.45-.15-.95.5-1.84,1.44-1.99.94-.15,1.83.51,1.98,1.45Zm-2.24,15.38l.61-8.85c.29,0,.59-.03.89-.07.3-.05.58-.11.87-.2l3.29,8.24-5.65.89Zm93.62-25.06c-2.15-.75-4.94-1.27-8.4-1.57-7.35-.63-16.86-.13-26.76,1.42-9.9,1.55-19.1,3.98-25.91,6.83-3.2,1.34-5.7,2.69-7.52,4.07l-3.84-24.55c-.05-.32,1.2-2.59,8.34-5.59,6.47-2.71,15.31-5.03,24.89-6.53,9.58-1.5,18.71-1.99,25.69-1.39,7.72.66,9.6,2.45,9.65,2.77l3.84,24.55Zm-7.64,11.36c-6.47,2.69-15.24,4.98-24.7,6.46-9.46,1.48-18.51,1.98-25.49,1.4-7.73-.64-9.76-2.38-9.86-2.78h0c-.03-.41,1.41-2.71,8.59-5.68,6.46-2.68,15.22-4.96,24.64-6.44,9.43-1.48,18.46-1.98,25.43-1.4,7.75.64,9.82,2.38,9.92,2.78.04.4-1.36,2.68-8.54,5.66Zm35.75-43.96l-26.28,15.12-1.22-7.77c-.58-3.69-5.07-5.84-13.73-6.59-7.34-.63-16.85-.12-26.77,1.43-9.93,1.55-19.14,3.98-25.93,6.82-8.02,3.36-11.64,6.78-11.06,10.47l1.22,7.77-29.64-6.36c-.19-.04-.24-.16-.25-.26-.02-.1,0-.23.15-.32l62.61-36.02c.08-.05.11-.05.21-.03l70.6,15.15c.19.04.24.15.26.26.02.11.01.22-.16.32Z"/>
</svg>