<?xml version="1.0" encoding="UTF-8"?>
<!DOCTYPE svg PUBLIC "-//W3C//DTD SVG 1.1//EN" "http://www.w3.org/Graphics/SVG/1.1/DTD/svg11.dtd">
<!-- Creator: CorelDRAW 2020 (64-Bit Evaluation Version) -->
<svg xmlns="http://www.w3.org/2000/svg" xml:space="preserve" width="0.73213in" height="0.318067in" version="1.1" style="shape-rendering:geometricPrecision; text-rendering:geometricPrecision; image-rendering:optimizeQuality; fill-rule:evenodd; clip-rule:evenodd"
viewBox="0 0 24.74 10.75"
 xmlns:xlink="http://www.w3.org/1999/xlink"
 xmlns:xodm="http://www.corel.com/coreldraw/odm/2003">
 <defs>
  <style type="text/css">
   <![CDATA[
    .fil1 {fill:#FEFEFE}
    .fil7 {fill:#606062}
    .fil0 {fill:#373435}
    .fil9 {fill:#FBB12F}
    .fil11 {fill:#F58634}
    .fil3 {fill:#F47F3A}
    .fil12 {fill:#F16136}
    .fil6 {fill:#F1603A}
    .fil10 {fill:#EE3537}
    .fil8 {fill:#0EA155}
    .fil5 {fill:#33934F}
    .fil4 {fill:#324875}
    .fil2 {fill:#354978}
    .fil13 {fill:#4B4B4D;fill-rule:nonzero}
   ]]>
  </style>
 </defs>
 <g id="Layer_x0020_1">
  <metadata id="CorelCorpID_0Corel-Layer"/>
  <g id="_2294799650896">
   <rect class="fil0" x="10.1" y="1.07" width="0.09" height="8.62"/>
   <path class="fil1" d="M3 3.19c-0.19,0 -0.19,-0.29 0,-0.29 0.19,0 0.19,0.29 0,0.29zm3.35 -2.86l0 0 -4.86 0c-0.1,0 -0.17,0.08 -0.17,0.17l0 4.12c0,0.1 0.08,0.17 0.17,0.17l4.86 0c0.1,0 0.17,-0.08 0.17,-0.17l0 -4.12c0,-0.1 -0.08,-0.17 -0.17,-0.17z"/>
   <path class="fil2" d="M3 3.19c-0.19,0 -0.19,-0.29 0,-0.29 0.19,0 0.19,0.29 0,0.29zm0.9 -2.25l0 0c-0.95,0 -1.71,0.77 -1.71,1.71 0,0.95 0.77,1.71 1.71,1.71 0.95,0 1.71,-0.77 1.71,-1.71 0,-0.95 -0.77,-1.71 -1.71,-1.71z"/>
   <path class="fil3" d="M4.44 1.93l0.21 -0.23 0.06 -0.07c0.15,0.06 0.31,0.04 0.44,-0.1 0.12,-0.14 0.16,-0.34 0.11,-0.52l-0.25 0.28 -0.25 -0.06 -0.07 -0.27 0.25 -0.28c-0.16,-0.05 -0.35,-0 -0.47,0.14 -0.12,0.14 -0.14,0.32 -0.07,0.48l0.01 -0.01 -0.35 0.39 0.39 0.25z"/>
   <path class="fil4" d="M4.46 1.95l-0.04 -0.04 0.28 -0.32 0.02 0.01c0.15,0.06 0.3,0.03 0.41,-0.1 0.1,-0.12 0.15,-0.29 0.11,-0.44l-0.23 0.26 -0.28 -0.07 -0.08 -0.3 0.23 -0.26c-0.15,-0.03 -0.3,0.03 -0.4,0.14 -0.11,0.13 -0.13,0.29 -0.07,0.45l-0.01 0 0.01 0.01 -0.04 0.04 -0 -0 -0.31 0.35 -0.04 -0.04 0.32 -0.37c-0.07,-0.18 -0.04,-0.35 0.08,-0.49 0.13,-0.15 0.32,-0.2 0.5,-0.15l0.04 0.01 -0.27 0.3 0.06 0.24 0.22 0.06 0.27 -0.3 0.01 0.04c0.06,0.19 0.02,0.4 -0.11,0.54 -0.12,0.14 -0.28,0.18 -0.45,0.12l-0.05 0.06 -0.21 0.23z"/>
   <path class="fil3" d="M2.34 3.94c-0.04,0.01 -0.08,-0 -0.09,-0.04 -0.01,-0.04 0,-0.08 0.04,-0.09 0.04,-0.01 0.08,0 0.09,0.04 0.01,0.04 -0,0.08 -0.04,0.09zm0.34 -0.77l0 0 -0.51 0.54c-0,0 -0,0 -0,0l0 -0c-0.08,0.09 -0.08,0.22 0.01,0.3 0.08,0.08 0.22,0.08 0.3,-0.01 0,-0 0,-0 0,-0l0.51 -0.54 -0.31 -0.29z"/>
   <path class="fil4" d="M2.32 3.83c-0.01,0 -0.01,0 -0.02,0 -0.01,0 -0.02,0.01 -0.02,0.02 -0,0.01 -0,0.02 -0,0.04 0.01,0.02 0.04,0.03 0.06,0.03 0.02,-0.01 0.03,-0.04 0.03,-0.06 -0.01,-0.02 -0.02,-0.03 -0.04,-0.03zm-0 0.14l0 0c-0.04,0 -0.07,-0.02 -0.09,-0.06 -0.01,-0.02 -0.01,-0.05 0,-0.07 0.01,-0.02 0.03,-0.04 0.05,-0.05 0.01,-0 0.02,-0.01 0.03,-0.01 0.04,0 0.07,0.02 0.09,0.06 0.02,0.05 -0,0.1 -0.05,0.12 -0.01,0 -0.02,0.01 -0.03,0.01zm-0.14 -0.22l0 0 0.01 -0.02 0.5 -0.53 0.27 0.26 -0.49 0.53c-0,0 -0,0 -0,0 -0.04,0.04 -0.08,0.06 -0.14,0.06l0 0c-0.05,0 -0.09,-0.02 -0.13,-0.05 -0.07,-0.07 -0.08,-0.18 -0.02,-0.25zm0.15 0.35l0 0 0 0c-0.06,0 -0.12,-0.02 -0.16,-0.06 -0.09,-0.09 -0.1,-0.24 -0.01,-0.33 0,-0 0,-0 0,-0l0.53 -0.56 0.34 0.32 -0.53 0.56c-0,0 -0,0 -0,0 -0.04,0.05 -0.1,0.07 -0.17,0.07z"/>
   <path class="fil5" d="M5.54 1.68l-3.84 1.48 0.13 0.34 1.05 -0.41c-0.01,-0.08 0.04,-0.17 0.14,-0.16 0.05,0 0.09,0.03 0.11,0.06l2.54 -0.98 0.24 -0.29 -0.37 -0.05z"/>
   <path class="fil2" d="M3 3.19c-0.19,0 -0.19,-0.29 0,-0.29 0.19,0 0.19,0.29 0,0.29zm1.42 -1.23l0 0 -0.6 -0.36 -0.52 0.23 -0.39 0.18 -0.47 0.8 0.32 0.33 0.39 0.4 1.42 -1.12c0.01,-0.36 -0.15,-0.46 -0.15,-0.46z"/>
   <polygon class="fil2" points="5.76,1.7 5.81,1.82 5.9,1.71 "/>
   <path class="fil4" d="M5.53 1.65l-3.87 1.51 0.16 0.37 1.02 -0.39c-0.01,-0.02 -0.05,-0.03 -0.05,-0.05l-0.94 0.37 -0.12 -0.27 3.8 -1.49 0.32 0.03 -0.2 0.24 -2.54 1c0.01,0.01 0.03,0.02 0.04,0.04l2.54 -0.99 0.28 -0.33 -0.44 -0.04z"/>
   <polygon class="fil1" points="5.78,1.73 5.54,1.71 5.66,1.98 5.81,1.79 "/>
   <polygon class="fil6" points="5.54,1.71 5.66,1.98 "/>
   <polygon class="fil4" points="5.63,1.99 5.51,1.72 5.57,1.69 5.68,1.96 "/>
   <path class="fil2" d="M6.34 6.5l-0.04 -0.08 0.22 0 0.05 0.08 -0.22 0zm-0.14 -0.28l0 0 0.2 0 0.05 0.08 -0.21 0 -0.04 -0.08zm-0.28 0.28l0 0 -0.03 -0.08 0.22 0 0.04 0.08 -0.23 0zm-0.11 -0.28l0 0 0.2 0 0.04 0.08 -0.21 0 -0.03 -0.08zm-0.08 -0.21l0 0 0.19 0 0.04 0.08 -0.19 0 -0.03 -0.08zm-0.23 0.49l0 0 -0.02 -0.08 0.22 0 0.03 0.08 -0.23 0zm-0.08 -0.28l0 0 0.21 0 0.03 0.08 -0.21 0 -0.02 -0.08zm-0.06 -0.21l0 0 0.19 0 0.03 0.08 -0.2 0 -0.02 -0.08zm-0.28 0.49l0 0 -0.01 -0.08 0.23 0 0.02 0.08 -0.23 0zm-0.42 0l0 0 -0.01 -0.08 0.23 0 0.01 0.08 -0.23 0zm-0.02 -0.28l0 0 0.39 0 -0.04 -0.21 0.19 0 0.08 0.29 -0.62 0 -0.01 -0.08zm-0.01 -0.21l0 0 0.01 0.08 0.2 0 -0.01 -0.08 -0.19 0zm-2.08 0.49l0 0 0.04 -0.08 1.88 0 0 0.08 -1.92 0zm-0.1 -0.2l0 0 -0.21 0 0.05 -0.08 0.2 0 -0.04 0.08zm-0.1 0.2l0 0 -0.22 0 0.05 -0.08 0.22 0 -0.04 0.08zm-0.3 -0.2l0 0 -0.2 0 0.05 -0.08 0.2 0 -0.05 0.08zm-0.12 0.2l0 0 -0.22 0 0.05 -0.08 0.21 0 -0.05 0.08zm-0.28 -0.2l0 0 -0.2 0 0.06 -0.08 0.19 0 -0.06 0.08zm-0.14 0.2l0 0 -0.21 0 0.06 -0.08 0.21 0 -0.06 0.08zm0.17 -0.49l0 0 0.17 0 -0.06 0.08 -0.18 0 0.06 -0.08zm0.37 0l0 0 0.18 0 -0.05 0.08 -0.19 0 0.05 -0.08zm0.37 0l0 0 0.18 0 -0.04 0.08 -0.19 0 0.05 -0.08zm0.27 0.21l0 0 0.2 0 -0.03 0.08 -0.21 0 0.04 -0.08zm0.1 -0.21l0 0 0.19 0 -0.03 0.08 -0.19 0 0.04 -0.08zm0.29 0.21l0 0 0.21 0 -0.02 0.08 -0.21 0 0.03 -0.08zm0.08 -0.21l0 0 0.19 0 -0.02 0.08 -0.2 0 0.03 -0.08zm0.32 0.21l0 0 0.21 0 -0.01 0.08 -0.22 0 0.02 -0.08zm0.05 -0.21l0 0 0.19 0 -0.01 0.08 -0.2 0 0.02 -0.08zm0.34 0.21l0 0 0.21 0 -0.01 0.08 -0.22 0 0.01 -0.08zm0.03 -0.21l0 0 0.19 0 -0.01 0.08 -0.2 0 0.01 -0.08zm0.36 0.21l0 0 0.21 0 0 0.08 -0.22 0 0 -0.08zm0.01 -0.21l0 0 0.19 0 0 0.08 -0.2 0 0 -0.08zm2.04 0l0 0 0.05 0.08 -0.19 0 -0.04 -0.08 0.18 0zm0.15 -0.07l0 0c-0.01,-0.02 -0.04,-0.03 -0.07,-0.03l-4.82 0c-0.02,0 -0.05,0.01 -0.06,0.03l-0.48 0.57c-0.02,0.02 -0.02,0.06 -0.01,0.09 0.01,0.03 0.04,0.05 0.07,0.05l5.71 0c0.03,0 0.06,-0.02 0.07,-0.04 0.01,-0.03 0.01,-0.06 -0.01,-0.08l-0.4 -0.57z"/>
   <path class="fil2" d="M2.86 5.65c-0.08,0.08 0.04,0.12 0.04,0.12l1 0 0 0 0 0 1 0c0,0 0.12,-0.04 0.04,-0.12 -0.08,-0.08 -0.29,-0.13 -0.31,-0.46 -0,-0.03 -0,-0.13 -0,-0.26l-1.48 0c0,0.14 0,0.24 -0,0.26 -0.02,0.33 -0.23,0.39 -0.31,0.46z"/>
   <path class="fil2" d="M1.52 0.36c-0.1,0 -0.17,0.08 -0.17,0.17l0 4.06c0,0.1 0.08,0.17 0.17,0.17l4.79 0c0.1,0 0.17,-0.08 0.17,-0.17l0 -4.06c0,-0.1 -0.08,-0.17 -0.17,-0.17l-4.79 0zm4.79 4.57l0 0 -4.79 0c-0.19,0 -0.34,-0.15 -0.34,-0.34l0 -4.06c0,-0.19 0.15,-0.34 0.34,-0.34l4.79 0c0.19,0 0.34,0.15 0.34,0.34l0 4.06c0,0.19 -0.15,0.34 -0.34,0.34z"/>
   <path class="fil2" d="M1.52 0.36c-0.1,0 -0.17,0.08 -0.17,0.17l0 4.06c0,0.1 0.08,0.17 0.17,0.17l4.79 0c0.1,0 0.17,-0.08 0.17,-0.17l0 -4.06c0,-0.1 -0.08,-0.17 -0.17,-0.17l-4.79 0zm4.79 4.57l0 0 -4.79 0c-0.19,0 -0.34,-0.15 -0.34,-0.34l0 -4.06c0,-0.19 0.15,-0.34 0.34,-0.34l4.79 0c0.19,0 0.34,0.15 0.34,0.34l0 4.06c0,0.19 -0.15,0.34 -0.34,0.34z"/>
   <path class="fil2" d="M-0 8.8l0.15 -0.21c0.09,0.09 0.23,0.17 0.41,0.17 0.15,0 0.22,-0.07 0.22,-0.14 0,-0.22 -0.74,-0.07 -0.74,-0.55 0,-0.21 0.18,-0.39 0.49,-0.39 0.2,0 0.37,0.06 0.5,0.18l-0.15 0.2c-0.1,-0.1 -0.24,-0.14 -0.37,-0.14 -0.12,0 -0.18,0.05 -0.18,0.13 0,0.2 0.74,0.07 0.74,0.54 0,0.23 -0.17,0.41 -0.51,0.41 -0.25,0 -0.42,-0.08 -0.55,-0.2z"/>
   <polygon class="fil2" points="1.84,8.98 1.59,8.63 1.48,8.75 1.48,8.98 1.24,8.98 1.24,7.7 1.48,7.7 1.48,8.47 1.83,8.06 2.13,8.06 1.76,8.48 2.14,8.98 "/>
   <polygon class="fil2" points="4.22,8.98 4.22,7.7 4.5,7.7 4.5,8.98 "/>
   <path class="fil2" d="M5.37 8.98l0 -0.56c0,-0.13 -0.07,-0.17 -0.17,-0.17 -0.1,0 -0.17,0.05 -0.21,0.11l0 0.63 -0.24 0 0 -0.93 0.24 0 0 0.12c0.06,-0.07 0.17,-0.14 0.32,-0.14 0.21,0 0.3,0.12 0.3,0.3l0 0.66 -0.25 0z"/>
   <path class="fil2" d="M6.5 8.69l0 -0.33c-0.04,-0.06 -0.13,-0.11 -0.21,-0.11 -0.14,0 -0.24,0.11 -0.24,0.27 0,0.16 0.1,0.27 0.24,0.27 0.08,0 0.17,-0.04 0.21,-0.11zm0 0.3l0 0 0 -0.12c-0.07,0.09 -0.17,0.14 -0.29,0.14 -0.23,0 -0.41,-0.18 -0.41,-0.49 0,-0.3 0.17,-0.49 0.41,-0.49 0.11,0 0.21,0.05 0.29,0.14l0 -0.47 0.25 0 0 1.28 -0.25 0z"/>
   <path class="fil2" d="M6.98 8.98l0 -0.93 0.24 0 0 0.93 -0.24 0zm-0.02 -1.17l0 0c0,-0.08 0.07,-0.14 0.14,-0.14 0.08,0 0.15,0.06 0.15,0.14 0,0.08 -0.07,0.15 -0.15,0.15 -0.08,0 -0.14,-0.07 -0.14,-0.15z"/>
   <path class="fil2" d="M8.03 8.76l0 -0.12c-0.04,-0.05 -0.12,-0.08 -0.2,-0.08 -0.1,0 -0.17,0.05 -0.17,0.14 0,0.09 0.08,0.14 0.17,0.14 0.08,0 0.16,-0.03 0.2,-0.08zm0 0.22l0 0 0 -0.1c-0.06,0.08 -0.17,0.12 -0.29,0.12 -0.15,0 -0.32,-0.1 -0.32,-0.31 0,-0.22 0.17,-0.3 0.32,-0.3 0.12,0 0.23,0.04 0.29,0.11l0 -0.12c0,-0.09 -0.08,-0.16 -0.2,-0.16 -0.1,0 -0.19,0.04 -0.27,0.11l-0.1 -0.17c0.11,-0.1 0.26,-0.15 0.41,-0.15 0.21,0 0.41,0.08 0.41,0.35l0 0.6 -0.25 0z"/>
   <polygon class="fil3" points="2.39,7.83 2.21,8.08 2.27,8.08 2.27,8.98 2.51,8.98 2.51,8.08 2.57,8.08 "/>
   <polygon class="fil5" points="2.87,7.5 2.69,7.74 2.75,7.74 2.75,8.98 3,8.98 3,7.74 3.05,7.74 "/>
   <polygon class="fil2" points="3.36,7.5 3.18,7.74 3.24,7.74 3.24,8.98 3.48,8.98 3.48,7.74 3.54,7.74 "/>
   <path class="fil7" d="M0.5 9.91c-0.04,0 -0.07,0.03 -0.07,0.08l0 0.24 -0.12 0 0 -0.12 -0 0c-0.02,0.01 -0.05,0.03 -0.09,0.03 -0.09,0 -0.16,-0.06 -0.16,-0.16 0,-0.12 0.1,-0.17 0.19,-0.17l0.02 0.1c-0.06,-0.01 -0.1,0.02 -0.1,0.07 0,0.04 0.03,0.06 0.07,0.06 0.04,0 0.07,-0.03 0.07,-0.08l0 -0.21 -0.3 0 0 -0.09 0.72 0 0 0.09 -0.3 0 0 0.1 0 0c0.02,-0.02 0.05,-0.03 0.09,-0.03 0.09,0 0.16,0.06 0.16,0.16 0,0.12 -0.09,0.18 -0.19,0.17l-0.02 -0.1c0.06,0.01 0.09,-0.02 0.09,-0.07 0,-0.04 -0.03,-0.06 -0.06,-0.06z"/>
   <path class="fil7" d="M0.88 9.75l0 0.47 -0.12 0 0 -0.47 -0.09 0 0 -0.09 0.04 0 0 -0.01c-0.08,-0.03 -0.17,-0.09 -0.25,-0.17l0.1 -0.06 0.23 0.24 0.01 0 -0.14 -0.22 0.13 -0.03 0.09 0.25 0.09 0 0 0.09 -0.09 0z"/>
   <path class="fil7" d="M1.4 9.66l0.21 0 0 0.09 -0.09 0 0 0.47 -0.12 0 0 -0.56zm-0.32 0.24l0 0c-0.06,-0.02 -0.09,-0.06 -0.09,-0.12 0,-0.07 0.07,-0.14 0.16,-0.14 0.12,0 0.18,0.08 0.18,0.17 0,0.14 -0.11,0.2 -0.21,0.2l0 0c0.03,0.01 0.07,0.04 0.11,0.08l0.08 0.07 -0.1 0.07 -0.21 -0.19 -0.07 -0.05 0.07 -0.09c0.03,0.01 0.06,0.02 0.09,0.02 0.07,0 0.12,-0.04 0.12,-0.11 0,-0.05 -0.03,-0.08 -0.06,-0.08 -0.03,0 -0.05,0.02 -0.05,0.04 0,0.02 0.01,0.04 0.04,0.05l-0.07 0.07z"/>
   <path class="fil7" d="M2.01 9.84l0 -0.09 -0.46 0 0 -0.09 0.67 0 0 0.09 -0.09 0 0 0.47 -0.12 0 0 -0.29c-0.01,-0.01 -0.03,-0.01 -0.04,-0.01 -0.03,0 -0.05,0.02 -0.05,0.07l0 0.08 -0.11 0 0 -0.08c0,-0.04 -0.02,-0.06 -0.05,-0.06 -0.02,0 -0.05,0.02 -0.05,0.07 0,0.05 0.03,0.12 0.12,0.17l-0.07 0.08c-0.1,-0.05 -0.16,-0.15 -0.16,-0.25 0,-0.12 0.08,-0.17 0.16,-0.17 0.05,0 0.09,0.02 0.11,0.06l0 0c0.01,-0.05 0.05,-0.07 0.08,-0.07 0.02,0 0.05,0 0.06,0.02l0 0z"/>
   <path class="fil7" d="M2.69 9.66l0.27 0 0 0.09 -0.09 0 0 0.47 -0.12 0 0 -0.23 -0.14 0 0 0.09 -0.11 0c-0.05,-0.04 -0.07,-0.1 -0.07,-0.14l0.06 -0.05 0 -0.09c0,-0.03 -0.02,-0.04 -0.05,-0.04l-0.06 0 0 -0.09 0.08 0c0.06,0 0.14,0.02 0.14,0.13l0 0.1 0.14 0 0 -0.14 -0.07 0 0 -0.09z"/>
   <polygon class="fil7" points="3.11,9.75 3.11,10.22 2.99,10.22 2.99,9.75 2.9,9.75 2.9,9.66 3.2,9.66 3.2,9.75 "/>
   <path class="fil7" d="M3.36 10.01c0.02,0.02 0.03,0.04 0.07,0.08l0.08 0.09 -0.1 0.06 -0.24 -0.3 0.09 -0.07c0.03,0.04 0.04,0.05 0.07,0.05 0.02,0 0.03,-0.01 0.03,-0.04l0 -0.13 -0.22 0 0 -0.09 0.42 0 0 0.09 -0.08 0 0 0.13c0,0.08 -0.05,0.12 -0.11,0.12 -0,0 -0.01,0 -0.01,0l0 0z"/>
   <path class="fil7" d="M3.69 10.23c-0.06,-0.04 -0.13,-0.13 -0.13,-0.24 0,-0.12 0.09,-0.17 0.17,-0.17l0.1 0 0 -0.07 -0.34 0 0 -0.09 0.55 0 0 0.09 -0.09 0 0 0.47 -0.12 0 0 -0.3 -0.08 0c-0.04,0 -0.07,0.02 -0.07,0.07 0,0.06 0.04,0.12 0.1,0.16l-0.08 0.07z"/>
   <path class="fil7" d="M4.99 9.91c-0.04,0 -0.07,0.03 -0.07,0.08l0 0.24 -0.12 0 0 -0.12 -0 0c-0.02,0.01 -0.05,0.03 -0.09,0.03 -0.09,0 -0.16,-0.06 -0.16,-0.16 0,-0.12 0.1,-0.17 0.19,-0.17l0.02 0.1c-0.06,-0.01 -0.1,0.02 -0.1,0.07 0,0.04 0.03,0.06 0.07,0.06 0.04,0 0.07,-0.03 0.07,-0.08l0 -0.21 -0.27 0 0 -0.09 0.68 0 0 0.09 -0.3 0 0 0.1 0 0c0.02,-0.02 0.05,-0.03 0.09,-0.03 0.09,0 0.16,0.06 0.16,0.16 0,0.12 -0.09,0.18 -0.19,0.17l-0.02 -0.1c0.06,0.01 0.09,-0.02 0.09,-0.07 0,-0.04 -0.03,-0.06 -0.06,-0.06z"/>
   <path class="fil7" d="M5.66 9.66l0.21 0 0 0.09 -0.09 0 0 0.47 -0.12 0 0 -0.56zm-0.32 0.24l0 0c-0.06,-0.02 -0.09,-0.06 -0.09,-0.12 0,-0.07 0.07,-0.14 0.16,-0.14 0.12,0 0.18,0.08 0.18,0.17 0,0.14 -0.11,0.2 -0.21,0.2l0 0c0.03,0.01 0.07,0.04 0.11,0.08l0.08 0.07 -0.1 0.07 -0.21 -0.19 -0.07 -0.05 0.07 -0.09c0.03,0.01 0.06,0.02 0.09,0.02 0.07,0 0.12,-0.04 0.12,-0.11 0,-0.05 -0.03,-0.08 -0.06,-0.08 -0.03,0 -0.05,0.02 -0.05,0.04 0,0.02 0.01,0.04 0.04,0.05l-0.07 0.07z"/>
   <path class="fil7" d="M6.27 9.84l0 -0.09 -0.46 0 0 -0.09 0.67 0 0 0.09 -0.09 0 0 0.47 -0.12 0 0 -0.29c-0.01,-0.01 -0.03,-0.01 -0.04,-0.01 -0.03,0 -0.05,0.02 -0.05,0.07l0 0.08 -0.11 0 0 -0.08c0,-0.04 -0.02,-0.06 -0.05,-0.06 -0.02,0 -0.05,0.02 -0.05,0.07 0,0.05 0.03,0.12 0.12,0.17l-0.07 0.08c-0.1,-0.05 -0.16,-0.15 -0.16,-0.25 0,-0.12 0.08,-0.17 0.16,-0.17 0.05,0 0.09,0.02 0.11,0.06l0 0c0.01,-0.05 0.05,-0.07 0.08,-0.07 0.02,0 0.05,0 0.06,0.02l0 0z"/>
   <path class="fil7" d="M6.95 9.66l0.27 0 0 0.09 -0.09 0 0 0.47 -0.12 0 0 -0.23 -0.14 0 0 0.09 -0.11 0c-0.05,-0.04 -0.07,-0.1 -0.07,-0.14l0.06 -0.05 0 -0.09c0,-0.03 -0.02,-0.04 -0.05,-0.04l-0.08 0 0 -0.09 0.1 0c0.06,0 0.14,0.02 0.14,0.13l0 0.1 0.14 0 0 -0.14 -0.07 0 0 -0.09z"/>
   <polygon class="fil7" points="7.37,9.75 7.37,10.22 7.25,10.22 7.25,9.75 7.16,9.75 7.16,9.66 7.45,9.66 7.45,9.75 "/>
   <path class="fil7" d="M7.62 10.01c0.02,0.02 0.03,0.04 0.07,0.08l0.08 0.09 -0.1 0.06 -0.24 -0.3 0.09 -0.07c0.03,0.04 0.04,0.05 0.07,0.05 0.02,0 0.03,-0.01 0.03,-0.04l0 -0.13 -0.22 0 0 -0.09 0.42 0 0 0.09 -0.08 0 0 0.13c0,0.08 -0.05,0.12 -0.11,0.12 -0,0 -0.01,0 -0.01,0l0 0z"/>
   <path class="fil7" d="M7.95 10.23c-0.06,-0.04 -0.13,-0.13 -0.13,-0.24 0,-0.12 0.09,-0.17 0.17,-0.17l0.1 0 0 -0.07 -0.34 0 0 -0.09 0.55 0 0 0.09 -0.09 0 0 0.47 -0.12 0 0 -0.3 -0.08 0c-0.04,0 -0.07,0.02 -0.07,0.07 0,0.06 0.04,0.12 0.1,0.16l-0.08 0.07z"/>
   <path class="fil7" d="M4.91 10.57c-0.14,0 -0.24,-0.09 -0.28,-0.15l0.08 -0.08c0.05,0.08 0.12,0.13 0.2,0.13 0.04,0 0.07,-0.02 0.07,-0.06 0,-0.03 -0.02,-0.04 -0.04,-0.04 -0.03,0 -0.05,0.01 -0.06,0.04l-0.08 -0.07c0.03,-0.04 0.07,-0.06 0.14,-0.06 0.09,0 0.15,0.05 0.15,0.14 0,0.08 -0.05,0.15 -0.19,0.15z"/>
   <polygon class="fil7" points="4.39,10.01 4.16,10.01 4.16,9.89 4.39,9.89 "/>
   <polygon class="fil1" points="2.97,2.64 2.98,2.66 "/>
   <path class="fil1" d="M5.43 4.76c0.02,-0.02 -0.04,-0.02 -0.02,-0.04 -0.01,-0.02 -0.69,0.04 -0.7,0.03 -0.24,-0.24 0.15,0.15 -0.09,-0.09 -0.26,-0.27 -0.52,-0.53 -0.79,-0.8 -0.02,-0.02 -0.06,-0.03 -0.09,-0.04 -0.08,-0.02 -0.17,-0.03 -0.24,-0.07 -0.07,-0.03 -0.12,-0.1 -0.18,-0.15 -0.07,-0.06 -0.14,-0.13 -0.21,-0.2 0.09,-0.09 0.2,-0.15 0.22,-0.29 0,-0.01 0.02,-0.01 0.02,-0.02 0.04,-0.03 0.08,-0.06 0.12,-0.09 0.06,-0.05 0.11,-0.11 0.09,-0.2 -0,-0.01 0.01,-0.02 0.02,-0.03 0.06,-0.07 0.13,-0.14 0.19,-0.2 0.04,-0.01 0.09,-0.01 0.14,-0.02 -0.01,0.03 -0.01,0.06 -0.02,0.08 -0.04,0.07 -0.02,0.14 0.01,0.21 0.07,0.13 0.14,0.25 0.22,0.37 0.01,0.02 0.04,0.03 0.07,0.04 -0,-0.03 0.01,-0.06 -0.01,-0.08 -0.06,-0.1 -0.12,-0.21 -0.18,-0.31 -0.03,-0.06 -0.08,-0.12 -0.05,-0.19 0.03,-0.08 0.07,-0.16 0.1,-0.24 0.07,-0.14 0.07,-0.14 -0.05,-0.25 -0.01,-0 -0.01,-0.01 -0.02,-0.01 -0.05,-0.05 -0.1,-0.05 -0.15,-0.02 -0.05,0.03 -0.11,0.05 -0.16,0.08 -0.06,0.03 -0.12,0.02 -0.17,-0.03 -0.02,-0.02 -0.05,-0.05 -0.07,-0.07 -0.04,-0.04 -0.04,-0.08 0.01,-0.11 0.12,-0.1 0.23,-0.19 0.35,-0.29 0.05,-0.04 0.1,-0.04 0.15,-0.01 0.15,0.1 0.3,0.2 0.45,0.29 0.06,0.04 0.09,0.09 0.1,0.16 0.02,0.2 0.04,0.4 0.07,0.59 0.03,0.19 -0.01,0.35 -0.12,0.5 -0.02,0.03 -0.04,0.06 -0.06,0.09 -0.04,0.04 -0.03,0.07 0.01,0.1 0.14,0.13 0.28,0.25 0.42,0.38 0.2,0.19 0.41,0.37 0.61,0.56 0.02,0.02 0.04,0.03 0.06,0.04 -0.02,-0.04 -0.04,-0.06 -0.07,-0.09 -0.28,-0.27 -0.56,-0.55 -0.84,-0.82 -0.04,-0.04 -0.1,-0.08 -0.11,-0.12 -0.01,-0.04 0.05,-0.1 0.07,-0.14 0.03,-0.05 0.05,-0.1 0.07,-0.14 0.01,-0.01 0.02,-0.03 0.03,-0.05 0.54,0.48 1.23,1.08 1.77,1.56l-0.98 0.13z"/>
   <path class="fil1" d="M3.06 2.81c0.07,0.07 0.14,0.13 0.21,0.2 0.05,0.05 0.08,0.05 0.12,-0.01 0.03,-0.03 0.06,-0.07 0.09,-0.1 0.04,-0.04 0.04,-0.08 0,-0.12 -0.14,-0.14 -0.28,-0.27 -0.43,-0.41 -0.04,-0.03 -0.08,-0.03 -0.11,0 -0.03,0.03 -0.07,0.07 -0.1,0.1 -0.04,0.04 -0.04,0.08 0,0.12 0.07,0.07 0.14,0.13 0.21,0.2 -0,0 -0,0 -0,0z"/>
   <path class="fil1" d="M3.27 2.49c0.07,0.07 0.14,0.13 0.21,0.2 0.04,0.04 0.08,0.04 0.12,-0 0.03,-0.03 0.06,-0.07 0.09,-0.1 0.04,-0.04 0.04,-0.08 0,-0.12 -0.14,-0.14 -0.28,-0.27 -0.42,-0.4 -0.04,-0.04 -0.08,-0.04 -0.12,0.01 -0.03,0.04 -0.07,0.07 -0.1,0.1 -0.04,0.04 -0.04,0.07 0,0.11 0.07,0.07 0.14,0.13 0.21,0.2z"/>
   <path class="fil1" d="M3.07 2.92c-0.01,-0.01 -0.01,-0.02 -0.02,-0.03 0,-0 -0,0 0,0 -0.06,-0.05 -0.11,-0.11 -0.17,-0.16 -0.07,-0.06 -0.1,-0.06 -0.16,0.01 -0.02,0.02 -0.04,0.05 -0.07,0.07 -0.04,0.04 -0.04,0.08 -0,0.12 0.12,0.12 0.25,0.24 0.38,0.36 0.04,0.03 0.07,0.03 0.11,-0 0.04,-0.03 0.07,-0.07 0.1,-0.11 0.04,-0.04 0.03,-0.08 -0.01,-0.12 -0.04,-0.04 -0.07,-0.07 -0.11,-0.11l-0.05 -0.04z"/>
   <path class="fil1" d="M3.65 2.33c0.06,0.05 0.11,0.1 0.16,0.15 0.03,0.03 0.07,0.03 0.1,-0 0.04,-0.04 0.08,-0.08 0.11,-0.12 0.01,-0.02 0.02,-0.07 0.01,-0.09 -0.02,-0.03 -0.05,-0.09 -0.11,-0.06 -0.08,0.04 -0.17,0.08 -0.26,0.12z"/>
   <path class="fil1" d="M3.34 2.03c0.08,-0.07 0.15,-0.13 0.23,-0.2 -0,-0.01 -0,-0.01 -0,-0.02 -0.03,0.01 -0.07,0 -0.08,0.02 -0.05,0.06 -0.14,0.09 -0.14,0.2z"/>
   <g>
    <path class="fil8" d="M17.38 3.73c-0.03,-0.04 -0.07,-0.07 -0.1,-0.11 -0.03,-0.03 -0.08,-0.07 -0.1,-0.11 -0.03,-0.01 -0.18,-0.17 -0.21,-0.21 -0.04,-0.04 -0.19,-0.18 -0.21,-0.22 0.02,-0.04 0.21,-0.21 0.25,-0.26l0.78 -0.77c0.09,-0.09 0.17,-0.17 0.26,-0.26 0.08,-0.08 0.18,-0.19 0.26,-0.26 0.07,-0.07 0.5,-0.48 0.52,-0.52 -0.04,-0.04 -0.08,-0.09 -0.13,-0.13l-0.38 -0.39c-0.09,-0.08 -0.17,-0.17 -0.25,-0.26 -0.04,-0.04 -0.23,-0.24 -0.26,-0.26 -0.05,0.06 -0.43,0.43 -0.5,0.5l-2 2c-0.09,0.09 -0.16,0.16 -0.25,0.25 -0.04,0.04 -0.08,0.08 -0.13,0.13 -0.04,0.04 -0.08,0.09 -0.12,0.13 -0.17,0.17 -0.33,0.33 -0.5,0.5 -0.07,0.07 -0.45,0.44 -0.5,0.5 0.01,0.02 0.26,0.27 0.28,0.28 0.02,-0.02 0.04,-0.04 0.06,-0.06 0.09,-0.1 0.21,-0.21 0.3,-0.31l0.17 -0.19c0.02,-0.02 0.04,-0.04 0.06,-0.06l0.24 -0.25c0.04,-0.05 0.06,-0.08 0.12,-0.13 -0.02,0.04 -0.06,0.1 -0.09,0.15l-0.58 0.89c-0.03,0.04 -0.08,0.11 -0.09,0.15 0.02,0.02 0.04,0.03 0.05,0.06 -0.06,0.08 -0.41,0.23 -0.52,0.26 -0.16,0.04 -0.34,0.07 -0.51,0.03 -0.05,-0.01 -0.12,-0.04 -0.16,-0.04 -0.04,0.08 -0.16,0.22 -0.3,0.18 -0.27,-0.08 -0.25,-0.51 -0.22,-0.74 0.07,-0.54 0.47,-1.12 0.79,-1.55 0.02,-0.03 0.04,-0.04 0.06,-0.08 -0.12,0.05 -0.43,0.42 -0.53,0.53 -0.08,0.09 -0.15,0.19 -0.23,0.3 -0.19,0.26 -0.35,0.57 -0.44,0.88 -0.04,0.15 -0.01,0.16 -0.1,0.29 -0.06,0.08 -0.11,0.16 -0.15,0.24 -0.07,0.12 -0.12,0.23 -0.18,0.36 -0.18,0.39 -0.25,0.91 -0.18,1.35 0.03,0.17 0.06,0.27 0.12,0.41 0.1,0.27 0.54,1.38 0.71,1.41 -0.11,-0.2 -0.21,-0.68 -0.25,-0.94 -0.02,-0.16 -0.05,-0.39 -0.02,-0.56 0.03,-0.15 0.14,-0.26 0.24,-0.36 0.05,-0.05 0.23,-0.25 0.35,-0.24 0.08,0 0.11,0.1 0.11,0.19 0,0.05 -0.06,0.17 -0.08,0.22 -0.1,0.25 -0.27,0.6 -0.41,0.78 0.03,-0.01 0.09,-0.07 0.11,-0.09 0.11,-0.09 0.21,-0.2 0.31,-0.31 0.17,-0.2 0.39,-0.57 0.31,-0.88 -0.07,-0.24 -0.23,-0.37 -0.48,-0.3 -0.09,0.02 -0.28,0.12 -0.29,0.12 -0.07,-0.18 0.11,-0.49 0.21,-0.62 0.1,-0.12 0.21,-0.22 0.34,-0.3 0.07,-0.04 0.07,-0.05 0.17,-0.05 0.27,0 0.54,-0.01 0.79,-0.08 0.42,-0.12 0.47,-0.3 0.53,-0.34 0.03,0.03 0.05,0.06 0.09,0.08 0.04,-0.02 0.11,-0.07 0.15,-0.1l0.45 -0.3c0.07,-0.05 0.53,-0.36 0.59,-0.39 -0.03,0.01 -0.14,0.14 -0.18,0.18l-0.44 0.43c-0.04,0.04 -0.09,0.08 -0.13,0.12 -0.02,0.02 -0.04,0.04 -0.06,0.06l-0.13 0.12c-0.02,0.02 -0.05,0.05 -0.06,0.07l0.28 0.28c0.1,-0.08 0.24,-0.23 0.32,-0.32 0.11,-0.11 0.21,-0.21 0.32,-0.32 0.11,-0.11 0.21,-0.22 0.32,-0.33 0.08,-0.08 0.25,-0.24 0.32,-0.32 -0.03,-0.06 -0.24,-0.25 -0.31,-0.32 -0.03,-0.03 -0.08,-0.08 -0.11,-0.1 -0.05,0.02 -0.2,0.13 -0.25,0.16 -0.21,0.14 -0.42,0.27 -0.62,0.42 -0.03,0.02 -0.09,0.08 -0.13,0.09 0.03,-0.06 0.13,-0.18 0.18,-0.24 0.06,-0.07 0.48,-0.72 0.5,-0.76 -0.04,-0.05 -0.19,-0.17 -0.21,-0.22 0.02,-0.04 0.12,-0.12 0.15,-0.16l2.34 -2.33c0.03,0.02 0.54,0.54 0.6,0.6 -0.01,0.03 -1.45,1.45 -1.54,1.55 -0.09,0.09 -0.17,0.17 -0.26,0.26 -0.04,0.04 -0.24,0.23 -0.26,0.26 0.02,0.03 0.07,0.08 0.1,0.11l0.31 0.31c0.07,0.07 0.14,0.14 0.21,0.21 0.05,0.05 0.16,0.17 0.21,0.21 0.03,-0.02 0.19,-0.17 0.21,-0.2z"/>
    <path class="fil9" d="M18.62 4.97l0.21 0.21 1.86 -1.86c0.04,0.02 0.26,0.25 0.31,0.3 0.1,0.1 0.2,0.2 0.3,0.3 -0.01,0.03 -0.57,0.58 -0.61,0.62l-1.85 1.84 -0.04 -0.04c-0.19,-0.27 -0.51,-0.41 -0.82,-0.18 -0.19,0.14 -0.49,0.45 -0.66,0.65 -0.26,0.31 -0.18,0.63 0.13,0.87 0.13,0.1 0.29,0.17 0.49,0.1 0.13,-0.05 0.33,-0.21 0.38,-0.29 -0.02,-0.02 -0.27,-0.27 -0.29,-0.29 -0.08,0.06 -0.23,0.27 -0.36,0.2 -0.04,-0.02 -0.08,-0.06 -0.09,-0.11 -0.03,-0.1 0.09,-0.21 0.13,-0.26 0.11,-0.13 0.48,-0.52 0.62,-0.58 0.1,-0.04 0.35,0.07 0.1,0.35 -0.02,0.02 -0.03,0.03 -0.04,0.05 0.04,0.04 0.26,0.27 0.29,0.29 0.1,-0.1 0.19,-0.2 0.23,-0.34 0.03,-0.09 0.02,-0.07 0.07,-0.12l2.62 -2.62c0.03,-0.03 0.07,-0.07 0.1,-0.1 0.04,0.02 0.24,0.19 0.28,0.23 0.09,0.09 0.17,0.16 0.26,0.26 0.14,0.16 0.3,0.39 0.38,0.64 0.18,0.58 -0.15,1.19 -0.38,1.57 -0.13,0.21 -0.29,0.41 -0.43,0.59 -0.16,0.2 -0.36,0.31 -0.6,0.43 -0.43,0.22 -0.91,0.39 -1.36,0.57l-0.07 0.03c-0.01,0.01 -0,0 -0.01,0.01 0.18,0 0.54,-0.09 0.71,-0.14 0.22,-0.06 0.44,-0.12 0.65,-0.2l0.45 -0.17c0.03,-0.01 0.05,-0.02 0.08,-0.03 0.21,-0.1 0.43,-0.21 0.62,-0.33 0.11,-0.07 1,-0.66 1.13,-0.47 0.09,0.13 -0.21,0.92 -0.3,1.13 -0.02,0.05 -0.05,0.11 -0.06,0.15 0.03,-0.02 0.15,-0.17 0.18,-0.21 0.16,-0.2 0.36,-0.45 0.5,-0.67 0.1,-0.16 0.2,-0.32 0.21,-0.57 0,-0.13 -0.06,-0.19 -0.15,-0.24 -0.08,-0.04 -0.21,-0.08 -0.31,-0.09 0.01,-0.11 0.26,-0.57 0.32,-0.67 0.07,-0.12 0.13,-0.21 0.18,-0.3 0.06,-0.1 0.12,-0.21 0.17,-0.32 0.11,-0.21 0.6,-1.19 0.47,-1.47l-0.08 0.17c-0.16,0.33 -0.41,0.78 -0.64,1.06 -0.01,0.02 -0.02,0.02 -0.03,0.03 -0.04,0.08 -0.19,0.21 -0.25,0.27 -0.25,0.21 -0.47,0.24 -0.57,-0.15 -0.06,-0.25 -0,-0.22 -0.01,-0.28 -0,-0.04 -0.06,-0.08 -0.07,-0.12 -0.02,-0.01 -0.1,-0.09 -0.13,-0.12 -0.14,-0.12 -0.28,-0.22 -0.43,-0.32 -0.18,-0.12 -0.43,-0.28 -0.64,-0.38 -0.2,-0.1 -0.11,-0.04 -0.29,-0.21l-0.76 -0.76c-0.7,0.68 -1.38,1.38 -2.07,2.06z"/>
    <path class="fil10" d="M17.17 3.52c0.02,0.03 0.07,0.08 0.1,0.11 0.04,0.03 0.07,0.07 0.1,0.11 0.03,-0.02 0.09,-0.09 0.12,-0.11l1.28 -1.28c0.06,-0.06 0.44,-0.45 0.47,-0.46l0.6 0.6 -2.06 2.06c0.02,0.03 0.36,0.37 0.42,0.42l0.42 0.43c0.03,-0.01 0.2,-0.19 0.22,-0.21l-0.21 -0.21c-0.04,-0.02 -0.15,-0.16 -0.21,-0.21 -0.04,-0.04 -0.19,-0.18 -0.21,-0.21l2.06 -2.06c-0.02,-0.03 -1.01,-1.02 -1.02,-1.03 -0.03,0.01 -0.46,0.45 -0.52,0.51 -0.08,0.08 -1.53,1.52 -1.55,1.56z"/>
    <path class="fil11" d="M16.75 6.06l-0.27 -0.27c-0.08,0.04 -0.21,0.21 -0.25,0.32 -0.06,0.18 0,0.33 0.09,0.45 0.4,0.53 0.92,0.16 1.03,-0.16 0.08,-0.23 -0.1,-0.56 -0.07,-0.76 0.04,-0.3 0.5,-0.13 0.17,0.17 0.01,0.03 0.25,0.26 0.27,0.27 0.08,-0.06 0.19,-0.2 0.21,-0.35 0.05,-0.36 -0.5,-0.89 -0.93,-0.44 -0.31,0.32 -0.09,0.62 -0.09,0.91 0,0.1 -0.02,0.16 -0.08,0.21 -0.14,0.13 -0.33,-0.01 -0.22,-0.18 0.02,-0.03 0.04,-0.06 0.06,-0.08 0.03,-0.03 0.06,-0.04 0.07,-0.08z"/>
    <path class="fil12" d="M15.18 5.38l0.52 0.52c0.04,0.04 0.14,0.15 0.18,0.17 0.02,-0.01 0.24,-0.23 0.26,-0.26 -0.02,-0.03 -0.16,-0.16 -0.2,-0.2 -0.04,-0.03 -0.18,-0.18 -0.2,-0.2 0.02,-0.03 0.1,-0.11 0.14,-0.14 0.04,-0.04 0.12,-0.13 0.15,-0.14 0.12,0.14 0.25,0.24 0.36,0.37 0.02,-0.01 0.24,-0.23 0.26,-0.26 -0.03,-0.05 -0.34,-0.33 -0.37,-0.37l0.23 -0.23 0.41 0.4 0.25 -0.25c-0.02,-0.03 -0.67,-0.67 -0.71,-0.7 -0.09,0.08 -0.38,0.38 -0.48,0.49l-0.65 0.65c-0.04,0.04 -0.14,0.13 -0.16,0.16z"/>
    <path class="fil9" d="M23.05 4.74c-0.02,0.13 -0.04,0.21 0.01,0.34 0.04,0.09 0.1,0.17 0.19,0.2 0.16,0.06 0.31,-0.06 0.38,-0.19 0.01,-0.02 0.02,-0.04 0.03,-0.07l0.02 -0.05c0.01,-0.02 -0.01,0.03 0.01,-0.01l0.01 -0.01c-0.01,-0.04 0.01,-0.12 0.01,-0.18 -0.01,-0.14 -0.08,-0.3 -0.23,-0.34 -0.15,-0.05 -0.3,0.06 -0.37,0.17 -0.03,0.04 -0.04,0.09 -0.06,0.13z"/>
    <path class="fil8" d="M12.93 3.92c-0.17,0.04 -0.27,0.25 -0.25,0.47 0.01,0.19 0.14,0.43 0.35,0.38 0.17,-0.04 0.26,-0.26 0.24,-0.48 -0.01,-0.18 -0.14,-0.42 -0.34,-0.38z"/>
    <path class="fil13" d="M11.5 9.57l0 -0.75 0.15 0 0.18 0.53c0.02,0.05 0.03,0.09 0.04,0.11 0.01,-0.03 0.02,-0.07 0.04,-0.12l0.18 -0.52 0.13 0 0 0.75 -0.1 0 0 -0.63 -0.22 0.63 -0.09 0 -0.22 -0.64 0 0.64 -0.1 0zm0.88 0l0 -0.75 0.54 0 0 0.09 -0.44 0 0 0.23 0.41 0 0 0.09 -0.41 0 0 0.26 0.46 0 0 0.09 -0.56 0zm0.7 0l0 -0.75 0.26 0c0.06,0 0.1,0 0.13,0.01 0.04,0.01 0.08,0.03 0.11,0.05 0.04,0.03 0.07,0.08 0.09,0.13 0.02,0.05 0.03,0.11 0.03,0.18 0,0.06 -0.01,0.11 -0.02,0.15 -0.01,0.04 -0.03,0.08 -0.05,0.11 -0.02,0.03 -0.04,0.05 -0.07,0.07 -0.02,0.02 -0.05,0.03 -0.09,0.04 -0.04,0.01 -0.08,0.01 -0.12,0.01l-0.27 0zm0.1 -0.09l0.16 0c0.05,0 0.09,-0 0.12,-0.01 0.03,-0.01 0.05,-0.02 0.07,-0.04 0.02,-0.02 0.04,-0.06 0.05,-0.1 0.01,-0.04 0.02,-0.09 0.02,-0.14 0,-0.08 -0.01,-0.14 -0.04,-0.18 -0.03,-0.04 -0.06,-0.07 -0.09,-0.08 -0.03,-0.01 -0.07,-0.02 -0.13,-0.02l-0.16 0 0 0.57zm0.67 0.09l0 -0.75 0.1 0 0 0.75 -0.1 0zm0.19 0l0.29 -0.75 0.11 0 0.31 0.75 -0.11 0 -0.09 -0.23 -0.32 0 -0.08 0.23 -0.11 0zm0.22 -0.31l0.26 0 -0.08 -0.21c-0.02,-0.06 -0.04,-0.12 -0.05,-0.16 -0.01,0.05 -0.02,0.1 -0.04,0.14l-0.08 0.22zm1.22 0.22c-0.03,0.03 -0.06,0.06 -0.1,0.08 -0.04,0.02 -0.07,0.03 -0.12,0.03 -0.08,0 -0.14,-0.03 -0.18,-0.08 -0.04,-0.04 -0.05,-0.09 -0.05,-0.14 0,-0.05 0.01,-0.09 0.04,-0.13 0.03,-0.04 0.07,-0.07 0.13,-0.1 -0.03,-0.04 -0.06,-0.07 -0.07,-0.09 -0.01,-0.02 -0.02,-0.05 -0.02,-0.07 0,-0.05 0.02,-0.08 0.05,-0.12 0.04,-0.03 0.08,-0.05 0.13,-0.05 0.05,0 0.09,0.02 0.13,0.05 0.03,0.03 0.05,0.07 0.05,0.11 0,0.07 -0.05,0.13 -0.14,0.18l0.14 0.17c0.02,-0.03 0.03,-0.06 0.04,-0.1l0.1 0.02c-0.02,0.07 -0.04,0.12 -0.07,0.16 0.03,0.05 0.07,0.08 0.12,0.11l-0.06 0.07c-0.04,-0.02 -0.08,-0.06 -0.11,-0.1zm-0.19 -0.39c0.04,-0.02 0.07,-0.04 0.08,-0.06 0.01,-0.02 0.02,-0.04 0.02,-0.06 0,-0.03 -0.01,-0.05 -0.02,-0.06 -0.02,-0.02 -0.04,-0.02 -0.06,-0.02 -0.03,0 -0.05,0.01 -0.06,0.02 -0.02,0.02 -0.02,0.04 -0.02,0.06 0,0.01 0,0.02 0.01,0.04 0.01,0.01 0.01,0.03 0.03,0.04l0.04 0.05zm0.13 0.32l-0.17 -0.21c-0.05,0.03 -0.08,0.06 -0.1,0.08 -0.02,0.03 -0.03,0.05 -0.03,0.08 0,0.03 0.01,0.06 0.04,0.09 0.02,0.03 0.06,0.05 0.1,0.05 0.03,0 0.06,-0.01 0.09,-0.03 0.03,-0.02 0.05,-0.04 0.07,-0.07zm0.63 0.16l0 -0.75 0.54 0 0 0.09 -0.44 0 0 0.23 0.41 0 0 0.09 -0.41 0 0 0.26 0.46 0 0 0.09 -0.56 0zm0.7 0l0 -0.75 0.1 0 0.39 0.59 0 -0.59 0.1 0 0 0.75 -0.1 0 -0.39 -0.59 0 0.59 -0.1 0zm0.95 0l0 -0.66 -0.25 0 0 -0.09 0.59 0 0 0.09 -0.25 0 0 0.66 -0.1 0zm0.45 0l0 -0.75 0.54 0 0 0.09 -0.44 0 0 0.23 0.41 0 0 0.09 -0.41 0 0 0.26 0.46 0 0 0.09 -0.56 0zm0.7 0l0 -0.75 0.33 0c0.07,0 0.12,0.01 0.15,0.02 0.03,0.01 0.06,0.04 0.08,0.07 0.02,0.03 0.03,0.07 0.03,0.11 0,0.05 -0.02,0.1 -0.05,0.13 -0.03,0.04 -0.09,0.06 -0.16,0.07 0.03,0.01 0.05,0.03 0.06,0.04 0.03,0.03 0.06,0.06 0.08,0.1l0.13 0.2 -0.12 0 -0.1 -0.16c-0.03,-0.05 -0.05,-0.08 -0.07,-0.1 -0.02,-0.02 -0.04,-0.04 -0.05,-0.05 -0.01,-0.01 -0.03,-0.02 -0.05,-0.02 -0.01,-0 -0.03,-0 -0.06,-0l-0.11 0 0 0.33 -0.1 0zm0.1 -0.42l0.21 0c0.05,0 0.08,-0 0.11,-0.01 0.03,-0.01 0.04,-0.02 0.06,-0.05 0.01,-0.02 0.02,-0.04 0.02,-0.07 0,-0.04 -0.01,-0.06 -0.04,-0.09 -0.03,-0.02 -0.07,-0.03 -0.12,-0.03l-0.24 0 0 0.25zm0.83 0.42l0 -0.66 -0.25 0 0 -0.09 0.59 0 0 0.09 -0.25 0 0 0.66 -0.1 0zm0.29 0l0.29 -0.75 0.11 0 0.31 0.75 -0.11 0 -0.09 -0.23 -0.32 0 -0.08 0.23 -0.11 0zm0.22 -0.31l0.26 0 -0.08 -0.21c-0.02,-0.06 -0.04,-0.12 -0.05,-0.16 -0.01,0.05 -0.02,0.1 -0.04,0.14l-0.08 0.22zm0.58 0.31l0 -0.75 0.1 0 0 0.75 -0.1 0zm0.27 0l0 -0.75 0.1 0 0.39 0.59 0 -0.59 0.1 0 0 0.75 -0.1 0 -0.39 -0.59 0 0.59 -0.1 0zm0.76 0l0 -0.75 0.15 0 0.18 0.53c0.02,0.05 0.03,0.09 0.04,0.11 0.01,-0.03 0.02,-0.07 0.04,-0.12l0.18 -0.52 0.13 0 0 0.75 -0.1 0 0 -0.63 -0.22 0.63 -0.09 0 -0.22 -0.64 0 0.64 -0.1 0zm0.88 0l0 -0.75 0.54 0 0 0.09 -0.44 0 0 0.23 0.41 0 0 0.09 -0.41 0 0 0.26 0.46 0 0 0.09 -0.56 0zm0.7 0l0 -0.75 0.1 0 0.39 0.59 0 -0.59 0.1 0 0 0.75 -0.1 0 -0.39 -0.59 0 0.59 -0.1 0zm0.95 0l0 -0.66 -0.25 0 0 -0.09 0.59 0 0 0.09 -0.25 0 0 0.66 -0.1 0zm-10.52 0.93l0.09 -0.01c0,0.04 0.01,0.07 0.03,0.09 0.02,0.02 0.04,0.04 0.08,0.06 0.03,0.01 0.07,0.02 0.12,0.02 0.04,0 0.07,-0.01 0.1,-0.02 0.03,-0.01 0.05,-0.03 0.06,-0.05 0.01,-0.02 0.02,-0.04 0.02,-0.06 0,-0.02 -0.01,-0.04 -0.02,-0.06 -0.01,-0.02 -0.04,-0.03 -0.07,-0.04 -0.02,-0.01 -0.06,-0.02 -0.13,-0.04 -0.07,-0.02 -0.12,-0.03 -0.14,-0.05 -0.04,-0.02 -0.06,-0.04 -0.08,-0.07 -0.02,-0.03 -0.03,-0.06 -0.03,-0.09 0,-0.04 0.01,-0.07 0.03,-0.11 0.02,-0.03 0.05,-0.06 0.09,-0.08 0.04,-0.02 0.09,-0.03 0.14,-0.03 0.06,0 0.1,0.01 0.15,0.03 0.04,0.02 0.07,0.04 0.1,0.08 0.02,0.03 0.04,0.07 0.04,0.12l-0.1 0.01c-0.01,-0.05 -0.02,-0.08 -0.05,-0.11 -0.03,-0.02 -0.07,-0.04 -0.13,-0.04 -0.06,0 -0.1,0.01 -0.13,0.03 -0.03,0.02 -0.04,0.05 -0.04,0.08 0,0.03 0.01,0.05 0.03,0.07 0.02,0.02 0.07,0.04 0.15,0.05 0.08,0.02 0.14,0.03 0.17,0.05 0.04,0.02 0.08,0.05 0.1,0.08 0.02,0.03 0.03,0.07 0.03,0.11 0,0.04 -0.01,0.08 -0.03,0.11 -0.02,0.04 -0.06,0.06 -0.1,0.08 -0.04,0.02 -0.09,0.03 -0.14,0.03 -0.07,0 -0.12,-0.01 -0.17,-0.03 -0.05,-0.02 -0.08,-0.05 -0.11,-0.09 -0.03,-0.04 -0.04,-0.08 -0.04,-0.13zm0.73 0.24l0 -0.75 0.1 0 0 0.37 0.37 -0.37 0.13 0 -0.31 0.3 0.33 0.45 -0.13 0 -0.27 -0.38 -0.12 0.12 0 0.26 -0.1 0zm0.72 0l0 -0.75 0.1 0 0 0.75 -0.1 0zm0.27 0l0 -0.75 0.1 0 0 0.66 0.37 0 0 0.09 -0.47 0zm0.58 0l0 -0.75 0.1 0 0 0.66 0.37 0 0 0.09 -0.47 0zm0.55 -0.24l0.09 -0.01c0,0.04 0.01,0.07 0.03,0.09 0.02,0.02 0.04,0.04 0.08,0.06 0.03,0.01 0.07,0.02 0.11,0.02 0.04,0 0.07,-0.01 0.1,-0.02 0.03,-0.01 0.05,-0.03 0.06,-0.05 0.01,-0.02 0.02,-0.04 0.02,-0.06 0,-0.02 -0.01,-0.04 -0.02,-0.06 -0.01,-0.02 -0.04,-0.03 -0.07,-0.04 -0.02,-0.01 -0.06,-0.02 -0.13,-0.04 -0.07,-0.02 -0.12,-0.03 -0.14,-0.05 -0.04,-0.02 -0.06,-0.04 -0.08,-0.07 -0.02,-0.03 -0.03,-0.06 -0.03,-0.09 0,-0.04 0.01,-0.07 0.03,-0.11 0.02,-0.03 0.05,-0.06 0.09,-0.08 0.04,-0.02 0.09,-0.03 0.14,-0.03 0.06,0 0.1,0.01 0.15,0.03 0.04,0.02 0.08,0.04 0.1,0.08 0.02,0.03 0.04,0.07 0.04,0.12l-0.1 0.01c-0.01,-0.05 -0.02,-0.08 -0.05,-0.11 -0.03,-0.02 -0.07,-0.04 -0.13,-0.04 -0.06,0 -0.1,0.01 -0.13,0.03 -0.03,0.02 -0.04,0.05 -0.04,0.08 0,0.03 0.01,0.05 0.03,0.07 0.02,0.02 0.07,0.04 0.15,0.05 0.08,0.02 0.14,0.03 0.17,0.05 0.04,0.02 0.08,0.05 0.1,0.08 0.02,0.03 0.03,0.07 0.03,0.11 0,0.04 -0.01,0.08 -0.03,0.11 -0.02,0.04 -0.06,0.06 -0.1,0.08 -0.04,0.02 -0.09,0.03 -0.14,0.03 -0.07,0 -0.12,-0.01 -0.17,-0.03 -0.05,-0.02 -0.08,-0.05 -0.11,-0.09 -0.03,-0.04 -0.04,-0.08 -0.04,-0.13zm1.56 -0.02l0.1 0.03c-0.02,0.08 -0.06,0.14 -0.11,0.19 -0.05,0.04 -0.12,0.06 -0.2,0.06 -0.08,0 -0.15,-0.02 -0.2,-0.05 -0.05,-0.03 -0.09,-0.08 -0.12,-0.14 -0.03,-0.06 -0.04,-0.13 -0.04,-0.2 0,-0.08 0.01,-0.15 0.04,-0.2 0.03,-0.06 0.07,-0.1 0.13,-0.13 0.05,-0.03 0.12,-0.05 0.18,-0.05 0.07,0 0.14,0.02 0.19,0.06 0.05,0.04 0.09,0.09 0.11,0.16l-0.1 0.02c-0.02,-0.05 -0.04,-0.09 -0.08,-0.12 -0.03,-0.02 -0.07,-0.04 -0.12,-0.04 -0.06,0 -0.11,0.01 -0.14,0.04 -0.04,0.03 -0.07,0.06 -0.08,0.11 -0.02,0.05 -0.02,0.09 -0.02,0.14 0,0.06 0.01,0.12 0.03,0.17 0.02,0.05 0.05,0.08 0.09,0.11 0.04,0.02 0.08,0.04 0.13,0.04 0.06,0 0.1,-0.02 0.14,-0.05 0.04,-0.03 0.06,-0.08 0.08,-0.14zm0.19 -0.1c0,-0.12 0.03,-0.22 0.1,-0.29 0.07,-0.07 0.15,-0.11 0.26,-0.11 0.07,0 0.13,0.02 0.19,0.05 0.06,0.03 0.1,0.08 0.13,0.14 0.03,0.06 0.04,0.13 0.04,0.2 0,0.08 -0.02,0.14 -0.05,0.2 -0.03,0.06 -0.07,0.11 -0.13,0.14 -0.06,0.03 -0.12,0.05 -0.18,0.05 -0.07,0 -0.13,-0.02 -0.19,-0.05 -0.06,-0.03 -0.1,-0.08 -0.13,-0.14 -0.03,-0.06 -0.04,-0.12 -0.04,-0.19zm0.1 0c0,0.09 0.02,0.16 0.07,0.21 0.05,0.05 0.11,0.08 0.18,0.08 0.07,0 0.14,-0.03 0.18,-0.08 0.05,-0.05 0.07,-0.13 0.07,-0.22 0,-0.06 -0.01,-0.11 -0.03,-0.16 -0.02,-0.05 -0.05,-0.08 -0.09,-0.11 -0.04,-0.02 -0.08,-0.04 -0.13,-0.04 -0.07,0 -0.13,0.02 -0.18,0.07 -0.05,0.05 -0.08,0.13 -0.08,0.24zm1.23 -0.39l0.1 0 0 0.43c0,0.08 -0.01,0.14 -0.03,0.18 -0.02,0.04 -0.05,0.08 -0.09,0.11 -0.04,0.03 -0.1,0.04 -0.17,0.04 -0.07,0 -0.13,-0.01 -0.17,-0.04 -0.04,-0.02 -0.08,-0.06 -0.1,-0.11 -0.02,-0.05 -0.03,-0.11 -0.03,-0.19l0 -0.43 0.1 0 0 0.43c0,0.07 0.01,0.11 0.02,0.14 0.01,0.03 0.03,0.05 0.06,0.07 0.03,0.02 0.07,0.03 0.11,0.03 0.07,0 0.12,-0.02 0.16,-0.05 0.03,-0.03 0.05,-0.1 0.05,-0.19l0 -0.43zm0.26 0.75l0 -0.75 0.1 0 0.39 0.59 0 -0.59 0.1 0 0 0.75 -0.1 0 -0.39 -0.59 0 0.59 -0.1 0zm1.29 -0.26l0.1 0.03c-0.02,0.08 -0.06,0.14 -0.11,0.19 -0.05,0.04 -0.12,0.06 -0.2,0.06 -0.08,0 -0.15,-0.02 -0.2,-0.05 -0.05,-0.03 -0.09,-0.08 -0.12,-0.14 -0.03,-0.06 -0.04,-0.13 -0.04,-0.2 0,-0.08 0.01,-0.15 0.04,-0.2 0.03,-0.06 0.07,-0.1 0.13,-0.13 0.05,-0.03 0.12,-0.05 0.18,-0.05 0.07,0 0.14,0.02 0.19,0.06 0.05,0.04 0.09,0.09 0.11,0.16l-0.1 0.02c-0.02,-0.05 -0.04,-0.09 -0.08,-0.12 -0.03,-0.02 -0.07,-0.04 -0.12,-0.04 -0.06,0 -0.11,0.01 -0.14,0.04 -0.04,0.03 -0.07,0.06 -0.08,0.11 -0.02,0.05 -0.02,0.09 -0.02,0.14 0,0.06 0.01,0.12 0.03,0.17 0.02,0.05 0.05,0.08 0.09,0.11 0.04,0.02 0.08,0.04 0.13,0.04 0.06,0 0.1,-0.02 0.14,-0.05 0.04,-0.03 0.06,-0.08 0.08,-0.14zm0.24 0.26l0 -0.75 0.1 0 0 0.75 -0.1 0zm0.27 0l0 -0.75 0.1 0 0 0.66 0.37 0 0 0.09 -0.47 0z"/>
   </g>
  </g>
 </g>
</svg>
