<?xml version="1.0" encoding="UTF-8"?>
<svg id="Layer_1" data-name="Layer 1" xmlns="http://www.w3.org/2000/svg" viewBox="0 0 184.07 130.97">
  <defs>
    <style>
      .cls-1 {
        fill: #fff;
      }
    </style>
  </defs>
  <path class="cls-1" d="m43.76,66.39l35.23,11.45c.32.09.64.14.96.14,1.37,0,2.61-.9,3.07-2.31.55-1.74-.41-3.58-2.1-4.15l-35.23-11.45c-1.69-.57-3.48.42-4.03,2.17-.5,1.74.41,3.58,2.1,4.15Z"/>
  <path class="cls-1" d="m35.38,90.13l56.37,18.32c.09.05.23.05.32.09.05,0,.09.05.18.05.18.05.32.05.5.05s.32,0,.5-.05c.05,0,.09-.05.14-.05.09,0,.23-.05.32-.09l56.37-18.32c4.07-1.32,6.77-5.13,6.77-9.52V28.47c0-3.2-1.46-6.17-3.98-8.06-2.52-1.88-5.67-2.45-8.65-1.46l-51.48,16.77-51.52-16.77c-2.97-.94-6.13-.42-8.65,1.46-2.52,1.88-3.98,4.85-3.98,8.06v52.1c0,4.43,2.75,8.24,6.77,9.56ZM146.3,25.41c.96-.33,1.97-.14,2.79.47.82.61,1.28,1.55,1.28,2.59v52.1c0,1.41-.87,2.64-2.2,3.06l-52.12,16.96v-58.84l50.24-16.35Zm-111.1,3.06c0-1.04.46-1.98,1.28-2.59.55-.42,1.19-.61,1.83-.61.32,0,.64.05.96.14l50.24,16.35v58.84l-52.12-16.96c-1.28-.42-2.2-1.65-2.2-3.06V28.47Z"/>
  <path class="cls-1" d="m43.76,46.6l14.46,4.71c.32.09.64.14.96.14,1.37,0,2.61-.9,3.07-2.31.55-1.74-.41-3.58-2.1-4.15l-14.46-4.71c-1.69-.57-3.48.42-4.03,2.17-.5,1.74.41,3.58,2.1,4.15Z"/>
  <path class="cls-1" d="m68.47,54.61l10.52,3.44c.32.09.64.14.96.14,1.37,0,2.61-.9,3.07-2.31.55-1.74-.41-3.58-2.1-4.15l-10.52-3.44c-1.69-.57-3.48.42-4.03,2.17-.55,1.74.41,3.58,2.1,4.15Z"/>
  <path class="cls-1" d="m105.58,58.19c.32,0,.64-.05.96-.14l35.23-11.45c1.69-.57,2.61-2.4,2.1-4.15-.55-1.74-2.33-2.69-4.03-2.17l-35.23,11.45c-1.69.57-2.61,2.4-2.1,4.15.46,1.41,1.69,2.31,3.07,2.31Z"/>
  <path class="cls-1" d="m139.85,60.08l-8.74,2.83c-1.69.57-2.61,2.4-2.1,4.15.41,1.41,1.69,2.31,3.07,2.31.32,0,.64-.05.96-.14l8.74-2.83c1.69-.57,2.61-2.4,2.1-4.15-.55-1.74-2.33-2.73-4.03-2.17Z"/>
  <path class="cls-1" d="m105.58,77.98c.32,0,.64-.05.96-.14l14.37-4.66c1.69-.57,2.61-2.4,2.1-4.15-.55-1.74-2.33-2.69-4.03-2.17l-14.37,4.66c-1.69.57-2.61,2.4-2.1,4.15.46,1.41,1.69,2.31,3.07,2.31Z"/>
  <path class="cls-1" d="m156.78,97.62c-.55-1.79-2.38-2.78-4.12-2.21l-57.01,18.51c-1.88.61-3.84.61-5.72,0l-57.01-18.51c-1.74-.57-3.57.42-4.12,2.21-.55,1.79.41,3.67,2.15,4.24l57.01,18.51c1.6.52,3.2.75,4.85.75s3.25-.24,4.85-.75l56.97-18.51c1.74-.57,2.7-2.45,2.15-4.24Z"/>
</svg>