<?xml version="1.0" encoding="UTF-8"?>
<svg id="Layer_1" data-name="Layer 1" xmlns="http://www.w3.org/2000/svg" viewBox="0 0 184.07 130.97">
  <defs>
    <style>
      .cls-1 {
        fill: #fff;
        fill-rule: evenodd;
      }
    </style>
  </defs>
  <path class="cls-1" d="m66.12,39.24v-13.93c0-.44.17-.87.48-1.18.31-.31.72-.49,1.16-.49h67.7c.43,0,.85.18,1.16.49.31.31.48.73.48,1.18v52.65c0,.44-.17.87-.48,1.18-.31.31-.72.49-1.16.49h-33.78c-.89,0-1.61.74-1.61,1.64s.72,1.64,1.61,1.64h33.78c1.29,0,2.53-.52,3.44-1.45.91-.93,1.42-2.19,1.42-3.5V25.31c0-1.31-.51-2.57-1.42-3.5-.91-.93-2.15-1.45-3.44-1.45h-67.7c-1.29,0-2.53.52-3.44,1.45-.91.93-1.42,2.19-1.42,3.5v13.93c0,.91.72,1.64,1.61,1.64s1.61-.74,1.61-1.64Z"/>
  <path class="cls-1" d="m100.85,90.03v23.37c0,.91.72,1.64,1.61,1.64s1.61-.74,1.61-1.64v-23.37c0-.91-.72-1.64-1.61-1.64s-1.61.74-1.61,1.64Z"/>
  <path class="cls-1" d="m138.7,70.02h-18.14c-2.09,0-3.78,1.72-3.78,3.85v7.4c0,.91.72,1.64,1.61,1.64s1.61-.74,1.61-1.64v-7.4c0-.31.25-.56.55-.56h18.14c.89,0,1.61-.74,1.61-1.64s-.72-1.65-1.61-1.65Z"/>
  <path class="cls-1" d="m75.75,34.74h22.3c.89,0,1.61-.74,1.61-1.64s-.72-1.64-1.61-1.64h-22.3c-.89,0-1.61.74-1.61,1.64,0,.91.72,1.64,1.61,1.64Z"/>
  <path class="cls-1" d="m75.75,43.24h53.42c.89,0,1.61-.74,1.61-1.64s-.72-1.64-1.61-1.64h-53.42c-.89,0-1.61.74-1.61,1.64,0,.91.72,1.64,1.61,1.64Z"/>
  <path class="cls-1" d="m85.53,51.74h10.54c.89,0,1.61-.74,1.61-1.64s-.72-1.64-1.61-1.64h-10.54c-.89,0-1.61.74-1.61,1.64s.72,1.64,1.61,1.64Z"/>
  <path class="cls-1" d="m111.4,63.35h16.67c.89,0,1.61-.74,1.61-1.64s-.72-1.64-1.61-1.64h-16.67c-.89,0-1.61.74-1.61,1.64s.72,1.64,1.61,1.64Z"/>
  <path class="cls-1" d="m115.39,51.74h13.53c.89,0,1.61-.74,1.61-1.64s-.72-1.64-1.61-1.64h-13.53c-.89,0-1.61.74-1.61,1.64,0,.91.72,1.64,1.61,1.64Z"/>
  <path class="cls-1" d="m63.81,42.77c-8.2,0-14.85,6.78-14.85,15.13s6.65,15.13,14.85,15.13,14.85-6.78,14.85-15.13-6.66-15.13-14.85-15.13Zm0,3.29c6.41,0,11.62,5.31,11.62,11.84s-5.21,11.84-11.62,11.84-11.62-5.31-11.62-11.84,5.21-11.84,11.62-11.84Z"/>
  <path class="cls-1" d="m90.81,71.68l-6.04,5.9c-.3.3-.71.46-1.13.46h-27.96c-7.15,0-13.25,5.25-14.44,12.43-1.07,6.47-2.36,14.23-3.12,18.79-.24,1.44.16,2.91,1.08,4.02.92,1.11,2.28,1.76,3.71,1.76h29.93c2.69,0,4.86-2.22,4.86-4.95v-15.57c0-.15.06-.29.16-.4.1-.11.24-.16.39-.16h7.17c3.3,0,6.47-1.3,8.85-3.63,2.14-2.09,4.98-4.87,7.34-7.17,1.5-1.46,2.36-3.47,2.4-5.58.04-2.09-.72-4.11-2.13-5.63-.01-.02-.07-.08-.09-.09-1.43-1.49-3.38-2.36-5.43-2.4-2.07-.04-4.07.75-5.57,2.21Zm-3.8,8.28c1.32-1.29,3.81-3.73,6.04-5.9.88-.86,2.05-1.32,3.27-1.3,1.2.03,2.35.53,3.18,1.41,0,0,.04.05.05.06.82.89,1.27,2.07,1.25,3.3-.02,1.24-.53,2.41-1.41,3.27-2.36,2.3-5.19,5.08-7.34,7.17-1.78,1.74-4.15,2.71-6.62,2.71h-7.17c-1,0-1.96.41-2.67,1.13-.71.72-1.11,1.7-1.11,2.72v15.57c0,.92-.73,1.66-1.63,1.66h-29.93c-.48,0-.94-.22-1.25-.59-.31-.38-.44-.87-.36-1.35l3.12-18.79c.93-5.6,5.69-9.69,11.26-9.69h27.96c1.26,0,2.46-.49,3.37-1.38Z"/>
  <path class="cls-1" d="m52.55,113.67l2.82-17.02c.15-.89-.44-1.74-1.32-1.9-.88-.15-1.71.45-1.86,1.35l-2.82,17.02c-.15.89.44,1.74,1.32,1.9.88.15,1.71-.45,1.86-1.35Z"/>
  <path class="cls-1" d="m52.63,105.01h9.71c.3,0,.55.25.55.56v7.83c0,.91.72,1.64,1.61,1.64s1.61-.74,1.61-1.64v-7.83c0-2.13-1.69-3.85-3.78-3.85h-9.71c-.89,0-1.61.74-1.61,1.64s.72,1.64,1.61,1.64Z"/>
  <path class="cls-1" d="m99.59,71.89l6.69-21.3c.27-.87-.2-1.79-1.05-2.07-.85-.28-1.76.2-2.03,1.07l-6.69,21.3c-.27.86.2,1.79,1.05,2.07.85.28,1.76-.2,2.03-1.07Z"/>
</svg>