<?xml version="1.0" encoding="UTF-8"?>
<svg id="Layer_1" data-name="Layer 1" xmlns="http://www.w3.org/2000/svg" viewBox="0 0 184.07 130.97">
  <defs>
    <style>
      .cls-1 {
        fill: #fff;
      }
    </style>
  </defs>
  <g>
    <g>
      <path class="cls-1" d="m113.42,46.37h-40.01c-.83,0-1.51-.68-1.51-1.51v-15.36c0-.83.68-1.51,1.51-1.51h40.01c.83,0,1.51.68,1.51,1.51v15.36c0,.83-.68,1.51-1.51,1.51Zm-38.5-3.02h36.99v-12.34h-36.99v12.34Z"/>
      <g>
        <path class="cls-1" d="m104.8,59.28h-31.39c-.83,0-1.51-.68-1.51-1.51s.68-1.51,1.51-1.51h31.39c.83,0,1.51.68,1.51,1.51s-.68,1.51-1.51,1.51Z"/>
        <path class="cls-1" d="m85.48,72.2h-12.07c-.83,0-1.51-.68-1.51-1.51s.68-1.51,1.51-1.51h12.07c.83,0,1.51.68,1.51,1.51s-.68,1.51-1.51,1.51Z"/>
        <path class="cls-1" d="m81.79,85.12h-8.38c-.83,0-1.51-.68-1.51-1.51s.68-1.51,1.51-1.51h8.38c.83,0,1.51.68,1.51,1.51,0,.83-.68,1.51-1.51,1.51Z"/>
      </g>
    </g>
    <circle class="cls-1" cx="112.78" cy="57.77" r="1.94"/>
  </g>
  <g>
    <path class="cls-1" d="m125.23,15.04h-63.63c-.83,0-1.51.68-1.51,1.51v29.32h-16.99c-.83,0-1.51.68-1.51,1.51v39.86c0,5.93,4.83,10.76,10.76,10.76h33.66c.83,0,1.51-.68,1.51-1.51s-.68-1.51-1.51-1.51h-26.2c2.03-1.96,3.3-4.71,3.3-7.75V18.06h60.61v44c0,.83.68,1.51,1.51,1.51s1.51-.68,1.51-1.51V16.55c0-.83-.68-1.51-1.51-1.51ZM52.35,94.99c-4.27,0-7.74-3.47-7.74-7.74v-38.35h15.48v38.35c0,4.27-3.47,7.75-7.74,7.75Z"/>
    <path class="cls-1" d="m138.83,101.21l-11.85-9.75c1.37-2.72,2.14-5.79,2.14-9.03,0-11.11-9.03-20.15-20.13-20.15s-20.13,9.04-20.13,20.15,9.03,20.15,20.13,20.15c3.24,0,6.3-.77,9.02-2.14l9.73,11.86c2.84,3.88,9.06,5.09,12.49,1.41,1.56-1.51,4.78-6.98-1.4-12.5Zm-46.95-18.78c0-9.45,7.68-17.13,17.11-17.13s17.11,7.69,17.11,17.13-7.68,17.13-17.11,17.13-17.11-7.69-17.11-17.13Zm46.24,29.13c-2.64,2.56-6.06,1.28-8.03-1.14l-9.47-11.55c1.85-1.32,3.47-2.94,4.79-4.79l11.53,9.48c2.4,1.96,3.68,5.33,1.19,8Z"/>
  </g>
</svg>