<?xml version="1.0" encoding="UTF-8"?>
<svg id="Layer_1" data-name="Layer 1" xmlns="http://www.w3.org/2000/svg" viewBox="0 0 184.07 130.97">
  <defs>
    <style>
      .cls-1 {
        fill: #fff;
      }
    </style>
  </defs>
  <path class="cls-1" d="m143.59,20.37H48.37c-5.26,0-9.52,4.19-9.52,9.36v67.39c0,5.17,4.27,9.35,9.52,9.36h57.13v9.36c0,.76.46,1.44,1.18,1.73.71.29,1.53.13,2.08-.41l6.27-6.16,6.27,6.16c.54.54,1.36.7,2.08.41.71-.29,1.18-.97,1.18-1.73v-9.36h19.04c5.26,0,9.52-4.19,9.52-9.36V29.72c0-5.17-4.27-9.35-9.52-9.36Zm-43.21,36.62c-.29-.13-.51-.4-.57-.71-.06-.31.03-.64.25-.87,1.7-1.82,1.7-4.62,0-6.44-.22-.23-.31-.56-.25-.87.06-.31.28-.58.57-.71,2.28-1.04,3.37-3.63,2.51-5.95-.11-.3-.07-.63.11-.9.18-.27.48-.43.8-.44,2.51-.1,4.53-2.08,4.64-4.56.01-.32.18-.61.45-.79.27-.18.61-.22.92-.1,2.36.84,4.99-.23,6.06-2.47.13-.29.4-.5.72-.56.32-.06.65.03.88.25,1.85,1.68,4.7,1.68,6.55,0,.24-.22.57-.31.89-.25.32.06.59.27.72.56,1.06,2.24,3.69,3.31,6.05,2.46.3-.11.64-.07.92.1.27.18.44.47.45.79.11,2.48,2.13,4.46,4.64,4.56.32.01.62.18.8.44.18.26.22.6.11.9-.86,2.32.23,4.91,2.51,5.95.29.13.51.4.57.71.06.31-.03.64-.25.87-1.7,1.82-1.7,4.62,0,6.44.22.23.31.56.25.87-.06.31-.28.58-.57.71-2.28,1.04-3.37,3.63-2.51,5.95.11.3.07.63-.11.9-.18.27-.48.43-.8.44-2.52.1-4.54,2.09-4.64,4.57-.01.32-.18.61-.45.79-.27.18-.61.22-.92.1-2.36-.85-4.99.22-6.06,2.47-.13.29-.4.5-.72.56-.32.07-.65-.03-.89-.25-1.85-1.67-4.7-1.67-6.55,0-.24.22-.57.31-.89.25-.32-.06-.59-.27-.72-.56-1.06-2.24-3.69-3.31-6.05-2.46-.3.11-.64.07-.92-.1-.27-.18-.44-.47-.45-.79-.1-2.48-2.12-4.47-4.64-4.57-.32-.01-.62-.18-.8-.44-.18-.26-.22-.6-.11-.9.87-2.32-.22-4.91-2.5-5.95Zm20.92,35.05l-.56.55v-17.6c.25,0,.5.09.69.26.88.81,2.05,1.27,3.26,1.27.32,0,.65-.03.96-.09,1.52-.29,2.79-1.29,3.43-2.67.22-.47.78-.7,1.27-.52.58.2,1.19.29,1.81.27v19.08l-4.37-4.29c-.74-.73-1.95-.73-2.69,0l-3.8,3.74Zm-.56,19.27l-4.37-4.29c-.74-.73-1.95-.73-2.69,0l-4.37,4.29v-37.8c.61.03,1.23-.07,1.81-.27.5-.18,1.05.04,1.27.51.64,1.39,1.92,2.38,3.44,2.67.36.07.73.1,1.1.09v20.59c0,.76.46,1.44,1.18,1.73.71.29,1.53.13,2.08-.41l.56-.55v13.42Zm28.57-14.2c0,3.1-2.56,5.62-5.71,5.62h-19.04v-8.58l1.9-1.87,6.27,6.16c.54.54,1.36.7,2.08.41.71-.29,1.18-.97,1.18-1.73v-25.63c.53-.73.84-1.6.87-2.5.02-.52.45-.93.98-.96,1.54-.06,2.97-.84,3.82-2.1.86-1.26,1.05-2.85.51-4.28-.18-.49.05-1.03.53-1.25,1.4-.63,2.41-1.89,2.72-3.38.3-1.49-.14-3.03-1.19-4.15-.36-.38-.36-.97,0-1.35,1.05-1.11,1.49-2.66,1.19-4.15-.3-1.49-1.31-2.75-2.72-3.38-.48-.22-.71-.76-.53-1.25.54-1.42.35-3.01-.51-4.28-.86-1.26-2.28-2.04-3.82-2.1-.53-.02-.95-.44-.98-.96-.06-1.52-.85-2.92-2.14-3.76-1.28-.84-2.9-1.03-4.35-.5-.5.18-1.05-.04-1.27-.51-.65-1.38-1.92-2.37-3.44-2.67-1.52-.3-3.08.14-4.22,1.17-.39.35-.99.35-1.37,0-1.13-1.03-2.7-1.47-4.22-1.17-1.52.3-2.8,1.29-3.44,2.67-.22.47-.78.7-1.27.52-1.45-.53-3.07-.34-4.35.5-1.28.84-2.08,2.24-2.14,3.76-.02.52-.45.93-.98.96-1.54.06-2.97.84-3.82,2.1-.86,1.26-1.05,2.85-.51,4.28.18.49-.05,1.03-.53,1.25-1.4.63-2.41,1.89-2.72,3.38s.14,3.03,1.19,4.15c.36.38.36.97,0,1.35-1.05,1.11-1.49,2.66-1.19,4.15s1.31,2.75,2.72,3.38c.48.22.71.76.53,1.25-.54,1.42-.35,3.01.51,4.28.86,1.26,2.28,2.04,3.82,2.1.53.02.95.44.98.96.04.9.34,1.77.87,2.5v31.25h-57.13c-3.16,0-5.71-2.51-5.71-5.62V29.72c0-3.1,2.56-5.62,5.71-5.62h95.22c3.16,0,5.71,2.51,5.71,5.62v67.39Z"/>
  <path class="cls-1" d="m59.8,87.75c-3.16,0-5.71-2.51-5.71-5.62v-37.44c0-3.1,2.56-5.62,5.71-5.62h34.28c1.05,0,1.9-.84,1.9-1.87s-.85-1.87-1.9-1.87h-34.28c-5.26,0-9.52,4.19-9.52,9.36v37.44c0,5.17,4.27,9.35,9.52,9.36h36.18c1.05,0,1.9-.84,1.9-1.87s-.85-1.87-1.9-1.87h-36.18Z"/>
  <path class="cls-1" d="m61.7,65.29h26.66c1.05,0,1.9-.84,1.9-1.87s-.85-1.87-1.9-1.87h-26.66c-1.05,0-1.9.84-1.9,1.87s.85,1.87,1.9,1.87Z"/>
  <path class="cls-1" d="m61.7,57.8h26.66c1.05,0,1.9-.84,1.9-1.87s-.85-1.87-1.9-1.87h-26.66c-1.05,0-1.9.84-1.9,1.87s.85,1.87,1.9,1.87Z"/>
  <path class="cls-1" d="m61.7,50.31h26.66c1.05,0,1.9-.84,1.9-1.87s-.85-1.87-1.9-1.87h-26.66c-1.05,0-1.9.84-1.9,1.87s.85,1.87,1.9,1.87Z"/>
  <path class="cls-1" d="m59.95,82.88c.3.68.99,1.12,1.75,1.12.26,0,.52-.05.76-.16,1.76-.64,3.38-1.62,4.77-2.86.52-.51.97-1.07,1.34-1.68.73.8,1.58,1.49,2.53,2.02,1.32.85,2.97,1.06,4.47.56.57-.22,1.09-.56,1.52-.99.86.53,1.81.91,2.81,1.11l1.44.34c2.94.85,5.99,1.24,9.05,1.18.68-.05,1.28-.45,1.58-1.05.3-.6.24-1.31-.14-1.87-.38-.55-1.04-.87-1.71-.82-2.67.03-5.33-.33-7.89-1.09l-1.47-.34c-1.78-.4-2.23-1.11-2.42-1.6-.33-.87-1.26-1.37-2.19-1.17-.92.2-1.56,1.03-1.49,1.96.02.34-.14.66-.42.84-.44.06-.89-.06-1.26-.32-1.54-.94-2.7-2.38-3.28-4.07-.33-.87-1.25-1.37-2.18-1.18-.92.19-1.57,1.02-1.51,1.95.03,1.34-.5,2.63-1.47,3.57-1.06.91-2.28,1.62-3.6,2.09-.46.2-.83.57-1.01,1.03-.18.46-.17.98.03,1.43Z"/>
  <path class="cls-1" d="m120.74,67.16c8.41,0,15.23-6.7,15.23-14.97s-6.82-14.97-15.23-14.97-15.23,6.7-15.23,14.97c0,8.27,6.82,14.97,15.23,14.97Zm0-26.21c6.31,0,11.43,5.03,11.43,11.23s-5.12,11.23-11.43,11.23-11.43-5.03-11.43-11.23c0-6.2,5.12-11.22,11.43-11.23Z"/>
</svg>